M48
;Layer_Color=9474304
;FILE_FORMAT=2:5
INCH,TZ
;TYPE=PLATED
T01F00S00C0.01181
T02F00S00C0.01575
T04F00S00C0.04331
;TYPE=NON_PLATED
T05F00S00C0.06700
%
T01
X1102362Y496063
X1140100Y510900
X1151183Y514086
X1157480Y496063
X1212598
X1215101Y510900
X1225900Y515110
X1211101Y532600
X1215101Y558630
X1197641Y568253
X1191920Y580821
X1190400Y590020
X1198454Y586892
X1206221Y585247
X1221600Y589457
X1229533
X1226975Y580821
X1232663Y568499
X1244467Y572141
X1249632Y577000
X1241168Y591153
X1245600Y614600
Y623639
X1228400Y614600
X1216162Y618915
X1212234
X1208207
X1204579
X1202609Y623639
X1206744
X1210774
X1205147Y607987
X1157480Y606299
X1170352Y623639
X1102362Y606299
X1129921Y551181
X1140101Y558433
X1136100Y532600
X1185039Y551181
X1240158
X1235739Y628510
X1234144Y633384
X1225200Y634800
Y629800
X1210774Y631558
X1210775Y627576
X1206713
Y631558
X1202609
X1202610Y627576
X1199627Y636238
X1196905Y637770
X1190400Y641213
X1190991Y661758
X1182700Y666400
X1206547Y661758
X1216390
X1224000
X1223643Y671100
X1240158Y661417
X1245600Y645120
Y637859
X1212889Y636238
X1170352Y635433
X1161326Y632058
X1129921Y661417
X1158934Y690600
X1163700
X1168800
X1173700
X1196902Y695168
X1230743Y699991
X1234061Y705800
X1237978
X1157480Y716535
X1102362
T02
X1105100Y558500
X1115215Y580852
X1151975Y581289
X1183444Y558403
X1182200Y618128
X1225200Y608051
X1230220Y651643
X1200445
X1168800Y649711
X1182200Y629800
X1215375Y708100
X1221902Y712984
X1250300Y715700
X1257700
Y707513
T04
X1125813Y666100
Y676100
T05
X1120101Y521440
X1160101
X1195101
X1235101
M30
