G04*
G04 #@! TF.GenerationSoftware,Altium Limited,Altium Designer,24.2.2 (26)*
G04*
G04 Layer_Physical_Order=3*
G04 Layer_Color=16440176*
%FSLAX25Y25*%
%MOIN*%
G70*
G04*
G04 #@! TF.SameCoordinates,3758B99F-9DEC-4DD0-BAA5-DFD1AAF1D411*
G04*
G04*
G04 #@! TF.FilePolarity,Positive*
G04*
G01*
G75*
%ADD13C,0.01000*%
%ADD15C,0.00591*%
%ADD49C,0.02756*%
%ADD50C,0.02362*%
G36*
X1269324Y746336D02*
X1270088Y746020D01*
X1270776Y745560D01*
X1271360Y744976D01*
X1271820Y744288D01*
X1272136Y743524D01*
X1272297Y742713D01*
Y742300D01*
Y447700D01*
Y447287D01*
X1272136Y446476D01*
X1271820Y445712D01*
X1271360Y445024D01*
X1270776Y444440D01*
X1270088Y443981D01*
X1269324Y443664D01*
X1268513Y443503D01*
X1086687D01*
X1085876Y443664D01*
X1085112Y443981D01*
X1084424Y444440D01*
X1083840Y445024D01*
X1083381Y445712D01*
X1083064Y446476D01*
X1082903Y447287D01*
Y447700D01*
Y742300D01*
Y742713D01*
X1083064Y743524D01*
X1083381Y744288D01*
X1083840Y744976D01*
X1084424Y745560D01*
X1085112Y746020D01*
X1085876Y746336D01*
X1086687Y746497D01*
X1268513D01*
X1269324Y746336D01*
D02*
G37*
%LPC*%
G36*
X1231625Y744102D02*
X1230897Y744006D01*
X1230219Y743725D01*
X1229636Y743279D01*
X1229190Y742696D01*
X1228909Y742018D01*
X1228813Y741291D01*
Y736566D01*
X1228909Y735839D01*
X1229190Y735160D01*
X1229636Y734578D01*
X1230219Y734131D01*
X1230897Y733850D01*
X1231625Y733755D01*
X1232352Y733850D01*
X1233030Y734131D01*
X1233613Y734578D01*
X1234059Y735160D01*
X1234340Y735839D01*
X1234436Y736566D01*
Y741291D01*
X1234340Y742018D01*
X1234059Y742696D01*
X1233613Y743279D01*
X1233030Y743725D01*
X1232352Y744006D01*
X1231625Y744102D01*
D02*
G37*
G36*
X1187372D02*
X1186645Y744006D01*
X1185967Y743725D01*
X1185384Y743279D01*
X1184938Y742696D01*
X1184657Y742018D01*
X1184561Y741291D01*
Y736566D01*
X1184657Y735839D01*
X1184938Y735160D01*
X1185384Y734578D01*
X1185967Y734131D01*
X1186645Y733850D01*
X1187372Y733755D01*
X1188100Y733850D01*
X1188778Y734131D01*
X1189361Y734578D01*
X1189807Y735160D01*
X1190088Y735839D01*
X1190184Y736566D01*
Y741291D01*
X1190088Y742018D01*
X1189807Y742696D01*
X1189361Y743279D01*
X1188778Y743725D01*
X1188100Y744006D01*
X1187372Y744102D01*
D02*
G37*
G36*
X1231625Y727567D02*
X1230897Y727471D01*
X1230219Y727190D01*
X1229636Y726743D01*
X1229190Y726161D01*
X1228909Y725483D01*
X1228813Y724755D01*
Y721606D01*
X1228909Y720878D01*
X1229190Y720200D01*
X1229636Y719618D01*
X1230219Y719171D01*
X1230897Y718890D01*
X1231625Y718794D01*
X1232352Y718890D01*
X1233030Y719171D01*
X1233613Y719618D01*
X1234059Y720200D01*
X1234340Y720878D01*
X1234436Y721606D01*
Y724755D01*
X1234340Y725483D01*
X1234059Y726161D01*
X1233613Y726743D01*
X1233030Y727190D01*
X1232352Y727471D01*
X1231625Y727567D01*
D02*
G37*
G36*
X1187372D02*
X1186645Y727471D01*
X1185967Y727190D01*
X1185384Y726743D01*
X1184938Y726161D01*
X1184657Y725483D01*
X1184561Y724755D01*
Y721606D01*
X1184657Y720878D01*
X1184938Y720200D01*
X1185384Y719618D01*
X1185967Y719171D01*
X1186645Y718890D01*
X1187372Y718794D01*
X1188100Y718890D01*
X1188778Y719171D01*
X1189361Y719618D01*
X1189807Y720200D01*
X1190088Y720878D01*
X1190184Y721606D01*
Y724755D01*
X1190088Y725483D01*
X1189807Y726161D01*
X1189361Y726743D01*
X1188778Y727190D01*
X1188100Y727471D01*
X1187372Y727567D01*
D02*
G37*
G36*
X1157878Y718535D02*
X1157082D01*
X1156347Y718231D01*
X1155785Y717668D01*
X1155480Y716933D01*
Y716138D01*
X1155785Y715403D01*
X1156347Y714840D01*
X1157082Y714535D01*
X1157878D01*
X1158613Y714840D01*
X1159176Y715403D01*
X1159480Y716138D01*
Y716933D01*
X1159176Y717668D01*
X1158613Y718231D01*
X1157878Y718535D01*
D02*
G37*
G36*
X1102760D02*
X1101964D01*
X1101229Y718231D01*
X1100667Y717668D01*
X1100362Y716933D01*
Y716138D01*
X1100667Y715403D01*
X1101229Y714840D01*
X1101964Y714535D01*
X1102760D01*
X1103495Y714840D01*
X1104058Y715403D01*
X1104362Y716138D01*
Y716933D01*
X1104058Y717668D01*
X1103495Y718231D01*
X1102760Y718535D01*
D02*
G37*
G36*
X1222339Y715180D02*
X1221465D01*
X1220657Y714846D01*
X1220039Y714228D01*
X1219705Y713420D01*
Y712546D01*
X1220039Y711739D01*
X1220657Y711121D01*
X1221465Y710787D01*
X1222339D01*
X1223146Y711121D01*
X1223764Y711739D01*
X1224098Y712546D01*
Y713420D01*
X1223764Y714228D01*
X1223146Y714846D01*
X1222339Y715180D01*
D02*
G37*
G36*
X1238376Y707800D02*
X1237580D01*
X1236845Y707496D01*
X1236282Y706933D01*
X1236269Y706902D01*
X1235769D01*
X1235756Y706933D01*
X1235194Y707496D01*
X1234459Y707800D01*
X1233663D01*
X1232928Y707496D01*
X1232365Y706933D01*
X1232061Y706198D01*
Y705402D01*
X1232365Y704667D01*
X1232928Y704105D01*
X1233663Y703800D01*
X1234459D01*
X1235194Y704105D01*
X1235756Y704667D01*
X1235769Y704698D01*
X1236269D01*
X1236282Y704667D01*
X1236845Y704105D01*
X1237580Y703800D01*
X1238376D01*
X1239111Y704105D01*
X1239673Y704667D01*
X1239978Y705402D01*
Y706198D01*
X1239673Y706933D01*
X1239111Y707496D01*
X1238376Y707800D01*
D02*
G37*
G36*
X1215812Y710297D02*
X1214938D01*
X1214130Y709962D01*
X1213513Y709344D01*
X1213178Y708537D01*
Y707663D01*
X1213513Y706856D01*
X1214130Y706238D01*
X1214938Y705903D01*
X1215812D01*
X1216619Y706238D01*
X1217237Y706856D01*
X1217572Y707663D01*
Y708537D01*
X1217237Y709344D01*
X1216619Y709962D01*
X1215812Y710297D01*
D02*
G37*
G36*
X1231141Y701991D02*
X1230345D01*
X1229610Y701687D01*
X1229048Y701124D01*
X1228743Y700389D01*
Y699594D01*
X1229048Y698858D01*
X1229610Y698296D01*
X1230345Y697991D01*
X1231141D01*
X1231876Y698296D01*
X1232439Y698858D01*
X1232743Y699594D01*
Y700389D01*
X1232439Y701124D01*
X1231876Y701687D01*
X1231141Y701991D01*
D02*
G37*
G36*
X1197299Y697168D02*
X1196504D01*
X1195769Y696864D01*
X1195206Y696302D01*
X1194902Y695566D01*
Y694771D01*
X1195206Y694036D01*
X1195769Y693473D01*
X1196504Y693168D01*
X1197299D01*
X1198034Y693473D01*
X1198597Y694036D01*
X1198902Y694771D01*
Y695566D01*
X1198597Y696302D01*
X1198034Y696864D01*
X1197299Y697168D01*
D02*
G37*
G36*
X1174098Y692600D02*
X1173302D01*
X1172567Y692296D01*
X1172005Y691733D01*
X1171700Y690998D01*
Y690202D01*
X1172005Y689467D01*
X1172567Y688904D01*
X1173302Y688600D01*
X1174098D01*
X1174833Y688904D01*
X1175396Y689467D01*
X1175700Y690202D01*
Y690998D01*
X1175396Y691733D01*
X1174833Y692296D01*
X1174098Y692600D01*
D02*
G37*
G36*
X1169198D02*
X1168402D01*
X1167667Y692296D01*
X1167105Y691733D01*
X1166800Y690998D01*
Y690202D01*
X1167105Y689467D01*
X1167667Y688904D01*
X1168402Y688600D01*
X1169198D01*
X1169933Y688904D01*
X1170496Y689467D01*
X1170800Y690202D01*
Y690998D01*
X1170496Y691733D01*
X1169933Y692296D01*
X1169198Y692600D01*
D02*
G37*
G36*
X1164098D02*
X1163302D01*
X1162567Y692296D01*
X1162004Y691733D01*
X1161700Y690998D01*
Y690202D01*
X1162004Y689467D01*
X1162567Y688904D01*
X1163302Y688600D01*
X1164098D01*
X1164833Y688904D01*
X1165396Y689467D01*
X1165700Y690202D01*
Y690998D01*
X1165396Y691733D01*
X1164833Y692296D01*
X1164098Y692600D01*
D02*
G37*
G36*
X1159332D02*
X1158536D01*
X1157801Y692296D01*
X1157238Y691733D01*
X1156934Y690998D01*
Y690202D01*
X1157238Y689467D01*
X1157801Y688904D01*
X1158536Y688600D01*
X1159332D01*
X1160067Y688904D01*
X1160629Y689467D01*
X1160934Y690202D01*
Y690998D01*
X1160629Y691733D01*
X1160067Y692296D01*
X1159332Y692600D01*
D02*
G37*
G36*
X1127388Y680115D02*
X1124238D01*
X1123304Y679930D01*
X1122513Y679401D01*
X1121983Y678609D01*
X1121798Y677675D01*
Y674525D01*
X1121983Y673591D01*
X1122513Y672799D01*
X1123304Y672270D01*
X1124238Y672085D01*
X1127388D01*
X1128322Y672270D01*
X1129114Y672799D01*
X1129643Y673591D01*
X1129828Y674525D01*
Y677675D01*
X1129643Y678609D01*
X1129114Y679401D01*
X1128322Y679930D01*
X1127388Y680115D01*
D02*
G37*
G36*
X1224040Y673100D02*
X1223245D01*
X1222510Y672796D01*
X1221947Y672233D01*
X1221643Y671498D01*
Y670702D01*
X1221947Y669967D01*
X1222510Y669405D01*
X1223245Y669100D01*
X1224040D01*
X1224776Y669405D01*
X1225338Y669967D01*
X1225643Y670702D01*
Y671498D01*
X1225338Y672233D01*
X1224776Y672796D01*
X1224040Y673100D01*
D02*
G37*
G36*
X1183098Y668400D02*
X1182302D01*
X1181567Y668096D01*
X1181005Y667533D01*
X1180700Y666798D01*
Y666002D01*
X1181005Y665267D01*
X1181567Y664705D01*
X1182302Y664400D01*
X1183098D01*
X1183833Y664705D01*
X1184396Y665267D01*
X1184700Y666002D01*
Y666798D01*
X1184396Y667533D01*
X1183833Y668096D01*
X1183098Y668400D01*
D02*
G37*
G36*
X1224398Y663758D02*
X1223602D01*
X1222867Y663453D01*
X1222305Y662890D01*
X1222000Y662155D01*
Y661360D01*
X1222305Y660625D01*
X1222867Y660062D01*
X1223602Y659758D01*
X1224398D01*
X1225133Y660062D01*
X1225696Y660625D01*
X1226000Y661360D01*
Y662155D01*
X1225696Y662890D01*
X1225133Y663453D01*
X1224398Y663758D01*
D02*
G37*
G36*
X1216788D02*
X1215992D01*
X1215257Y663453D01*
X1214694Y662890D01*
X1214390Y662155D01*
Y661360D01*
X1214694Y660625D01*
X1215257Y660062D01*
X1215992Y659758D01*
X1216788D01*
X1217523Y660062D01*
X1218085Y660625D01*
X1218390Y661360D01*
Y662155D01*
X1218085Y662890D01*
X1217523Y663453D01*
X1216788Y663758D01*
D02*
G37*
G36*
X1206945D02*
X1206149D01*
X1205414Y663453D01*
X1204852Y662890D01*
X1204547Y662155D01*
Y661360D01*
X1204852Y660625D01*
X1205414Y660062D01*
X1206149Y659758D01*
X1206945D01*
X1207680Y660062D01*
X1208243Y660625D01*
X1208547Y661360D01*
Y662155D01*
X1208243Y662890D01*
X1207680Y663453D01*
X1206945Y663758D01*
D02*
G37*
G36*
X1191389D02*
X1190593D01*
X1189858Y663453D01*
X1189295Y662890D01*
X1188991Y662155D01*
Y661360D01*
X1189295Y660625D01*
X1189858Y660062D01*
X1190593Y659758D01*
X1191389D01*
X1192124Y660062D01*
X1192686Y660625D01*
X1192991Y661360D01*
Y662155D01*
X1192686Y662890D01*
X1192124Y663453D01*
X1191389Y663758D01*
D02*
G37*
G36*
X1240555Y663417D02*
X1239760D01*
X1239025Y663113D01*
X1238462Y662550D01*
X1238157Y661815D01*
Y661020D01*
X1238462Y660284D01*
X1239025Y659722D01*
X1239760Y659417D01*
X1240555D01*
X1241290Y659722D01*
X1241853Y660284D01*
X1242157Y661020D01*
Y661815D01*
X1241853Y662550D01*
X1241290Y663113D01*
X1240555Y663417D01*
D02*
G37*
G36*
X1126336Y670069D02*
X1125291D01*
X1124281Y669798D01*
X1123376Y669276D01*
X1122637Y668537D01*
X1122115Y667632D01*
X1121844Y666622D01*
Y665578D01*
X1122115Y664568D01*
X1122637Y663663D01*
X1123376Y662924D01*
X1124281Y662402D01*
X1125291Y662132D01*
X1126336D01*
X1127345Y662402D01*
X1127711Y662613D01*
X1128108Y662265D01*
X1127921Y661815D01*
Y661020D01*
X1128226Y660284D01*
X1128788Y659722D01*
X1129523Y659417D01*
X1130319D01*
X1131054Y659722D01*
X1131617Y660284D01*
X1131921Y661020D01*
Y661815D01*
X1131617Y662550D01*
X1131054Y663113D01*
X1130319Y663417D01*
X1129523D01*
X1129358Y663349D01*
X1129238Y663452D01*
X1129045Y663760D01*
X1129511Y664568D01*
X1129782Y665578D01*
Y666622D01*
X1129511Y667632D01*
X1128989Y668537D01*
X1128250Y669276D01*
X1127345Y669798D01*
X1126336Y670069D01*
D02*
G37*
G36*
X1245998Y647120D02*
X1245202D01*
X1244467Y646816D01*
X1243904Y646253D01*
X1243600Y645518D01*
Y644722D01*
X1243904Y643987D01*
X1244467Y643425D01*
X1245202Y643120D01*
X1245998D01*
X1246733Y643425D01*
X1247296Y643987D01*
X1247600Y644722D01*
Y645518D01*
X1247296Y646253D01*
X1246733Y646816D01*
X1245998Y647120D01*
D02*
G37*
G36*
X1190798Y643213D02*
X1190002D01*
X1189267Y642908D01*
X1188704Y642346D01*
X1188400Y641611D01*
Y640815D01*
X1188704Y640080D01*
X1189267Y639517D01*
X1190002Y639213D01*
X1190798D01*
X1191533Y639517D01*
X1192096Y640080D01*
X1192400Y640815D01*
Y641611D01*
X1192096Y642346D01*
X1191533Y642908D01*
X1190798Y643213D01*
D02*
G37*
G36*
X1245998Y639859D02*
X1245202D01*
X1244467Y639555D01*
X1243904Y638992D01*
X1243600Y638257D01*
Y637461D01*
X1243904Y636726D01*
X1244467Y636164D01*
X1245202Y635859D01*
X1245998D01*
X1246733Y636164D01*
X1247296Y636726D01*
X1247600Y637461D01*
Y638257D01*
X1247296Y638992D01*
X1246733Y639555D01*
X1245998Y639859D01*
D02*
G37*
G36*
X1213286Y638238D02*
X1212491D01*
X1211756Y637933D01*
X1211193Y637371D01*
X1210888Y636636D01*
Y635840D01*
X1211193Y635105D01*
X1211756Y634542D01*
X1212491Y634238D01*
X1213286D01*
X1214021Y634542D01*
X1214584Y635105D01*
X1214888Y635840D01*
Y636636D01*
X1214584Y637371D01*
X1214021Y637933D01*
X1213286Y638238D01*
D02*
G37*
G36*
X1197303Y639770D02*
X1196507D01*
X1195772Y639466D01*
X1195209Y638903D01*
X1194905Y638168D01*
Y637372D01*
X1195209Y636637D01*
X1195772Y636075D01*
X1196507Y635770D01*
X1197303D01*
X1197795Y635433D01*
X1197931Y635105D01*
X1198494Y634542D01*
X1199229Y634238D01*
X1200025D01*
X1200760Y634542D01*
X1201322Y635105D01*
X1201627Y635840D01*
Y636636D01*
X1201322Y637371D01*
X1200760Y637933D01*
X1200025Y638238D01*
X1199229D01*
X1198736Y638575D01*
X1198600Y638903D01*
X1198038Y639466D01*
X1197303Y639770D01*
D02*
G37*
G36*
X1170750Y637433D02*
X1169955D01*
X1169220Y637129D01*
X1168657Y636566D01*
X1168353Y635831D01*
Y635035D01*
X1168657Y634300D01*
X1169220Y633738D01*
X1169955Y633433D01*
X1170750D01*
X1171485Y633738D01*
X1172048Y634300D01*
X1172353Y635035D01*
Y635831D01*
X1172048Y636566D01*
X1171485Y637129D01*
X1170750Y637433D01*
D02*
G37*
G36*
X1225598Y636800D02*
X1224802D01*
X1224067Y636496D01*
X1223505Y635933D01*
X1223200Y635198D01*
Y634402D01*
X1223505Y633667D01*
X1224067Y633105D01*
X1224802Y632800D01*
X1225598D01*
X1226333Y633105D01*
X1226896Y633667D01*
X1227200Y634402D01*
Y635198D01*
X1226896Y635933D01*
X1226333Y636496D01*
X1225598Y636800D01*
D02*
G37*
G36*
X1211172Y633558D02*
X1210376D01*
X1209641Y633254D01*
X1209079Y632691D01*
X1209014Y632536D01*
X1208473D01*
X1208409Y632691D01*
X1207846Y633254D01*
X1207111Y633558D01*
X1206316D01*
X1205581Y633254D01*
X1205018Y632691D01*
X1204932Y632483D01*
X1204391D01*
X1204304Y632691D01*
X1203742Y633254D01*
X1203006Y633558D01*
X1202211D01*
X1201476Y633254D01*
X1200913Y632691D01*
X1200609Y631956D01*
Y631160D01*
X1200913Y630425D01*
X1201476Y629863D01*
X1201586Y629817D01*
Y629317D01*
X1201477Y629272D01*
X1200915Y628709D01*
X1200610Y627974D01*
Y627179D01*
X1200915Y626443D01*
X1201477Y625881D01*
X1201532Y625858D01*
Y625358D01*
X1201476Y625335D01*
X1200913Y624772D01*
X1200609Y624037D01*
Y623242D01*
X1200913Y622507D01*
X1201476Y621944D01*
X1202211Y621639D01*
X1203006D01*
X1203742Y621944D01*
X1204304Y622507D01*
X1204406Y622752D01*
X1204947D01*
X1205049Y622507D01*
X1205611Y621944D01*
X1206346Y621639D01*
X1207142D01*
X1207877Y621944D01*
X1208440Y622507D01*
X1208488Y622624D01*
X1209030D01*
X1209079Y622507D01*
X1209641Y621944D01*
X1210376Y621639D01*
X1211172D01*
X1211907Y621944D01*
X1212470Y622507D01*
X1212774Y623242D01*
Y624037D01*
X1212470Y624772D01*
X1211907Y625335D01*
X1211852Y625358D01*
Y625858D01*
X1211908Y625881D01*
X1212471Y626443D01*
X1212775Y627179D01*
Y627974D01*
X1212471Y628709D01*
X1211908Y629272D01*
X1211798Y629318D01*
Y629818D01*
X1211907Y629863D01*
X1212470Y630425D01*
X1212774Y631160D01*
Y631956D01*
X1212470Y632691D01*
X1211907Y633254D01*
X1211172Y633558D01*
D02*
G37*
G36*
X1161724Y634058D02*
X1160928D01*
X1160193Y633754D01*
X1159630Y633191D01*
X1159326Y632456D01*
Y631661D01*
X1159630Y630925D01*
X1160193Y630363D01*
X1160928Y630058D01*
X1161724D01*
X1162459Y630363D01*
X1163021Y630925D01*
X1163326Y631661D01*
Y632456D01*
X1163021Y633191D01*
X1162459Y633754D01*
X1161724Y634058D01*
D02*
G37*
G36*
X1225598Y631800D02*
X1224802D01*
X1224067Y631496D01*
X1223505Y630933D01*
X1223200Y630198D01*
Y629402D01*
X1223505Y628667D01*
X1224067Y628104D01*
X1224802Y627800D01*
X1225598D01*
X1226333Y628104D01*
X1226896Y628667D01*
X1227200Y629402D01*
Y630198D01*
X1226896Y630933D01*
X1226333Y631496D01*
X1225598Y631800D01*
D02*
G37*
G36*
X1170750Y625639D02*
X1169955D01*
X1169220Y625335D01*
X1168657Y624772D01*
X1168353Y624037D01*
Y623242D01*
X1168657Y622507D01*
X1169220Y621944D01*
X1169955Y621639D01*
X1170750D01*
X1171485Y621944D01*
X1172048Y622507D01*
X1172353Y623242D01*
Y624037D01*
X1172048Y624772D01*
X1171485Y625335D01*
X1170750Y625639D01*
D02*
G37*
G36*
X1245998Y625639D02*
X1245202D01*
X1244467Y625335D01*
X1243904Y624772D01*
X1243600Y624037D01*
Y623242D01*
X1243904Y622507D01*
X1244467Y621944D01*
X1245202Y621639D01*
X1245998D01*
X1246733Y621944D01*
X1247296Y622507D01*
X1247600Y623242D01*
Y624037D01*
X1247296Y624772D01*
X1246733Y625335D01*
X1245998Y625639D01*
D02*
G37*
G36*
X1216560Y620915D02*
X1215764D01*
X1215029Y620611D01*
X1214467Y620048D01*
X1214448Y620003D01*
X1213948D01*
X1213929Y620048D01*
X1213367Y620611D01*
X1212632Y620915D01*
X1211836D01*
X1211101Y620611D01*
X1210538Y620048D01*
X1210491Y619934D01*
X1209950D01*
X1209903Y620048D01*
X1209340Y620611D01*
X1208605Y620915D01*
X1207809D01*
X1207074Y620611D01*
X1206720Y620256D01*
X1206393Y620103D01*
X1206066Y620256D01*
X1205712Y620611D01*
X1204977Y620915D01*
X1204181D01*
X1203446Y620611D01*
X1202883Y620048D01*
X1202579Y619313D01*
Y618517D01*
X1202883Y617782D01*
X1203446Y617219D01*
X1204181Y616915D01*
X1204977D01*
X1205712Y617219D01*
X1206066Y617574D01*
X1206393Y617727D01*
X1206720Y617574D01*
X1207074Y617219D01*
X1207809Y616915D01*
X1208605D01*
X1209340Y617219D01*
X1209903Y617782D01*
X1209950Y617896D01*
X1210491D01*
X1210538Y617782D01*
X1211101Y617219D01*
X1211836Y616915D01*
X1212632D01*
X1213367Y617219D01*
X1213929Y617782D01*
X1213948Y617827D01*
X1214448D01*
X1214467Y617782D01*
X1215029Y617219D01*
X1215764Y616915D01*
X1216560D01*
X1217295Y617219D01*
X1217858Y617782D01*
X1218162Y618517D01*
Y619313D01*
X1217858Y620048D01*
X1217295Y620611D01*
X1216560Y620915D01*
D02*
G37*
G36*
X1228798Y616600D02*
X1228002D01*
X1227267Y616296D01*
X1226705Y615733D01*
X1226400Y614998D01*
Y614202D01*
X1226705Y613467D01*
X1227267Y612905D01*
X1228002Y612600D01*
X1228798D01*
X1229533Y612905D01*
X1230096Y613467D01*
X1230400Y614202D01*
Y614998D01*
X1230096Y615733D01*
X1229533Y616296D01*
X1228798Y616600D01*
D02*
G37*
G36*
X1205544Y609987D02*
X1204749D01*
X1204014Y609682D01*
X1203451Y609120D01*
X1203146Y608385D01*
Y607589D01*
X1203451Y606854D01*
X1204014Y606291D01*
X1204749Y605987D01*
X1205544D01*
X1206279Y606291D01*
X1206842Y606854D01*
X1207146Y607589D01*
Y608385D01*
X1206842Y609120D01*
X1206279Y609682D01*
X1205544Y609987D01*
D02*
G37*
G36*
X1157878Y608299D02*
X1157082D01*
X1156347Y607995D01*
X1155785Y607432D01*
X1155480Y606697D01*
Y605901D01*
X1155785Y605166D01*
X1156347Y604604D01*
X1157082Y604299D01*
X1157878D01*
X1158613Y604604D01*
X1159176Y605166D01*
X1159480Y605901D01*
Y606697D01*
X1159176Y607432D01*
X1158613Y607995D01*
X1157878Y608299D01*
D02*
G37*
G36*
X1102760D02*
X1101964D01*
X1101229Y607995D01*
X1100667Y607432D01*
X1100362Y606697D01*
Y605901D01*
X1100667Y605166D01*
X1101229Y604604D01*
X1101964Y604299D01*
X1102760D01*
X1103495Y604604D01*
X1104058Y605166D01*
X1104362Y605901D01*
Y606697D01*
X1104058Y607432D01*
X1103495Y607995D01*
X1102760Y608299D01*
D02*
G37*
G36*
X1241566Y593153D02*
X1240770D01*
X1240035Y592848D01*
X1239472Y592286D01*
X1239168Y591551D01*
Y590755D01*
X1239472Y590020D01*
X1240035Y589457D01*
X1240770Y589153D01*
X1241566D01*
X1242301Y589457D01*
X1242863Y590020D01*
X1243168Y590755D01*
Y591551D01*
X1242863Y592286D01*
X1242301Y592848D01*
X1241566Y593153D01*
D02*
G37*
G36*
X1190798Y592020D02*
X1190002D01*
X1189267Y591715D01*
X1188704Y591153D01*
X1188400Y590418D01*
Y589622D01*
X1188704Y588887D01*
X1189267Y588324D01*
X1190002Y588020D01*
X1190798D01*
X1191533Y588324D01*
X1192096Y588887D01*
X1192400Y589622D01*
Y590418D01*
X1192096Y591153D01*
X1191533Y591715D01*
X1190798Y592020D01*
D02*
G37*
G36*
X1229931Y591457D02*
X1229135D01*
X1228400Y591153D01*
X1227837Y590590D01*
X1227533Y589855D01*
Y589059D01*
X1227837Y588324D01*
X1228400Y587762D01*
X1229135Y587457D01*
X1229931D01*
X1230666Y587762D01*
X1231229Y588324D01*
X1231533Y589059D01*
Y589855D01*
X1231229Y590590D01*
X1230666Y591153D01*
X1229931Y591457D01*
D02*
G37*
G36*
X1221998D02*
X1221202D01*
X1220467Y591153D01*
X1219905Y590590D01*
X1219600Y589855D01*
Y589059D01*
X1219905Y588324D01*
X1220467Y587762D01*
X1221202Y587457D01*
X1221998D01*
X1222733Y587762D01*
X1223296Y588324D01*
X1223600Y589059D01*
Y589855D01*
X1223296Y590590D01*
X1222733Y591153D01*
X1221998Y591457D01*
D02*
G37*
G36*
X1198851Y588892D02*
X1198056D01*
X1197321Y588587D01*
X1196758Y588025D01*
X1196454Y587290D01*
Y586494D01*
X1196758Y585759D01*
X1197321Y585196D01*
X1198056Y584892D01*
X1198851D01*
X1199586Y585196D01*
X1200149Y585759D01*
X1200454Y586494D01*
Y587290D01*
X1200149Y588025D01*
X1199586Y588587D01*
X1198851Y588892D01*
D02*
G37*
G36*
X1206619Y587247D02*
X1205824D01*
X1205088Y586943D01*
X1204526Y586380D01*
X1204221Y585645D01*
Y584850D01*
X1204526Y584114D01*
X1205088Y583552D01*
X1205824Y583247D01*
X1206619D01*
X1207354Y583552D01*
X1207917Y584114D01*
X1208221Y584850D01*
Y585645D01*
X1207917Y586380D01*
X1207354Y586943D01*
X1206619Y587247D01*
D02*
G37*
G36*
X1250030Y579000D02*
X1249234D01*
X1248499Y578696D01*
X1247937Y578133D01*
X1247632Y577398D01*
Y576602D01*
X1247937Y575867D01*
X1248499Y575305D01*
X1249234Y575000D01*
X1250030D01*
X1250765Y575305D01*
X1251328Y575867D01*
X1251632Y576602D01*
Y577398D01*
X1251328Y578133D01*
X1250765Y578696D01*
X1250030Y579000D01*
D02*
G37*
G36*
X1244865Y574141D02*
X1244069D01*
X1243334Y573837D01*
X1242772Y573274D01*
X1242467Y572539D01*
Y571743D01*
X1242772Y571008D01*
X1243334Y570445D01*
X1244069Y570141D01*
X1244865D01*
X1245600Y570445D01*
X1246163Y571008D01*
X1246467Y571743D01*
Y572539D01*
X1246163Y573274D01*
X1245600Y573837D01*
X1244865Y574141D01*
D02*
G37*
G36*
X1233061Y570499D02*
X1232265D01*
X1231530Y570195D01*
X1230967Y569632D01*
X1230663Y568897D01*
Y568101D01*
X1230967Y567366D01*
X1231530Y566804D01*
X1232265Y566499D01*
X1233061D01*
X1233796Y566804D01*
X1234358Y567366D01*
X1234663Y568101D01*
Y568897D01*
X1234358Y569632D01*
X1233796Y570195D01*
X1233061Y570499D01*
D02*
G37*
G36*
X1198039Y570253D02*
X1197243D01*
X1196508Y569949D01*
X1195946Y569386D01*
X1195641Y568651D01*
Y567855D01*
X1195946Y567120D01*
X1196508Y566558D01*
X1197243Y566253D01*
X1198039D01*
X1198774Y566558D01*
X1199337Y567120D01*
X1199641Y567855D01*
Y568651D01*
X1199337Y569386D01*
X1198774Y569949D01*
X1198039Y570253D01*
D02*
G37*
G36*
X1215499Y560630D02*
X1214703D01*
X1213968Y560325D01*
X1213405Y559763D01*
X1213101Y559028D01*
Y558232D01*
X1213405Y557497D01*
X1213968Y556934D01*
X1214703Y556630D01*
X1215499D01*
X1216234Y556934D01*
X1216796Y557497D01*
X1217101Y558232D01*
Y559028D01*
X1216796Y559763D01*
X1216234Y560325D01*
X1215499Y560630D01*
D02*
G37*
G36*
X1140499Y560433D02*
X1139703D01*
X1138968Y560129D01*
X1138405Y559566D01*
X1138101Y558831D01*
Y558035D01*
X1138405Y557300D01*
X1138968Y556738D01*
X1139703Y556433D01*
X1140499D01*
X1141234Y556738D01*
X1141796Y557300D01*
X1142101Y558035D01*
Y558831D01*
X1141796Y559566D01*
X1141234Y560129D01*
X1140499Y560433D01*
D02*
G37*
G36*
X1240555Y553181D02*
X1239760D01*
X1239025Y552877D01*
X1238462Y552314D01*
X1238157Y551579D01*
Y550783D01*
X1238462Y550048D01*
X1239025Y549486D01*
X1239760Y549181D01*
X1240555D01*
X1241290Y549486D01*
X1241853Y550048D01*
X1242157Y550783D01*
Y551579D01*
X1241853Y552314D01*
X1241290Y552877D01*
X1240555Y553181D01*
D02*
G37*
G36*
X1185437D02*
X1184641D01*
X1183906Y552877D01*
X1183344Y552314D01*
X1183039Y551579D01*
Y550783D01*
X1183344Y550048D01*
X1183906Y549486D01*
X1184641Y549181D01*
X1185437D01*
X1186172Y549486D01*
X1186735Y550048D01*
X1187039Y550783D01*
Y551579D01*
X1186735Y552314D01*
X1186172Y552877D01*
X1185437Y553181D01*
D02*
G37*
G36*
X1130319D02*
X1129523D01*
X1128788Y552877D01*
X1128226Y552314D01*
X1127921Y551579D01*
Y550783D01*
X1128226Y550048D01*
X1128788Y549486D01*
X1129523Y549181D01*
X1130319D01*
X1131054Y549486D01*
X1131617Y550048D01*
X1131921Y550783D01*
Y551579D01*
X1131617Y552314D01*
X1131054Y552877D01*
X1130319Y553181D01*
D02*
G37*
G36*
X1235645Y525578D02*
X1234556D01*
X1233504Y525296D01*
X1232560Y524751D01*
X1231790Y523981D01*
X1231245Y523037D01*
X1230963Y521985D01*
Y520895D01*
X1231245Y519843D01*
X1231790Y518900D01*
X1232560Y518129D01*
X1233504Y517585D01*
X1234556Y517303D01*
X1235645D01*
X1236698Y517585D01*
X1237641Y518129D01*
X1238412Y518900D01*
X1238956Y519843D01*
X1239238Y520895D01*
Y521985D01*
X1238956Y523037D01*
X1238412Y523981D01*
X1237641Y524751D01*
X1236698Y525296D01*
X1235645Y525578D01*
D02*
G37*
G36*
X1195646D02*
X1194556D01*
X1193504Y525296D01*
X1192560Y524751D01*
X1191790Y523981D01*
X1191245Y523037D01*
X1190963Y521985D01*
Y520895D01*
X1191245Y519843D01*
X1191790Y518900D01*
X1192560Y518129D01*
X1193504Y517585D01*
X1194556Y517303D01*
X1195646D01*
X1196698Y517585D01*
X1197641Y518129D01*
X1198412Y518900D01*
X1198956Y519843D01*
X1199238Y520895D01*
Y521985D01*
X1198956Y523037D01*
X1198412Y523981D01*
X1197641Y524751D01*
X1196698Y525296D01*
X1195646Y525578D01*
D02*
G37*
G36*
X1160645D02*
X1159556D01*
X1158504Y525296D01*
X1157560Y524751D01*
X1156790Y523981D01*
X1156245Y523037D01*
X1155963Y521985D01*
Y520895D01*
X1156245Y519843D01*
X1156790Y518900D01*
X1157560Y518129D01*
X1158504Y517585D01*
X1159556Y517303D01*
X1160645D01*
X1161698Y517585D01*
X1162641Y518129D01*
X1163412Y518900D01*
X1163956Y519843D01*
X1164238Y520895D01*
Y521985D01*
X1163956Y523037D01*
X1163412Y523981D01*
X1162641Y524751D01*
X1161698Y525296D01*
X1160645Y525578D01*
D02*
G37*
G36*
X1120646D02*
X1119556D01*
X1118504Y525296D01*
X1117560Y524751D01*
X1116790Y523981D01*
X1116245Y523037D01*
X1115963Y521985D01*
Y520895D01*
X1116245Y519843D01*
X1116790Y518900D01*
X1117560Y518129D01*
X1118504Y517585D01*
X1119556Y517303D01*
X1120646D01*
X1121698Y517585D01*
X1122641Y518129D01*
X1123412Y518900D01*
X1123956Y519843D01*
X1124238Y520895D01*
Y521985D01*
X1123956Y523037D01*
X1123412Y523981D01*
X1122641Y524751D01*
X1121698Y525296D01*
X1120646Y525578D01*
D02*
G37*
G36*
X1226298Y517110D02*
X1225502D01*
X1224767Y516806D01*
X1224205Y516243D01*
X1223900Y515508D01*
Y514712D01*
X1224205Y513977D01*
X1224767Y513415D01*
X1225502Y513110D01*
X1226298D01*
X1227033Y513415D01*
X1227596Y513977D01*
X1227900Y514712D01*
Y515508D01*
X1227596Y516243D01*
X1227033Y516806D01*
X1226298Y517110D01*
D02*
G37*
G36*
X1151581Y516086D02*
X1150785D01*
X1150050Y515782D01*
X1149487Y515219D01*
X1149183Y514484D01*
Y513689D01*
X1149487Y512954D01*
X1150050Y512391D01*
X1150785Y512086D01*
X1151581D01*
X1152316Y512391D01*
X1152878Y512954D01*
X1153183Y513689D01*
Y514484D01*
X1152878Y515219D01*
X1152316Y515782D01*
X1151581Y516086D01*
D02*
G37*
G36*
X1215499Y512900D02*
X1214703D01*
X1213968Y512596D01*
X1213405Y512033D01*
X1213101Y511298D01*
Y510502D01*
X1213405Y509767D01*
X1213968Y509204D01*
X1214703Y508900D01*
X1215499D01*
X1216234Y509204D01*
X1216796Y509767D01*
X1217101Y510502D01*
Y511298D01*
X1216796Y512033D01*
X1216234Y512596D01*
X1215499Y512900D01*
D02*
G37*
G36*
X1140498D02*
X1139702D01*
X1138967Y512596D01*
X1138404Y512033D01*
X1138100Y511298D01*
Y510502D01*
X1138404Y509767D01*
X1138967Y509204D01*
X1139702Y508900D01*
X1140498D01*
X1141233Y509204D01*
X1141796Y509767D01*
X1142100Y510502D01*
Y511298D01*
X1141796Y512033D01*
X1141233Y512596D01*
X1140498Y512900D01*
D02*
G37*
G36*
X1212996Y498063D02*
X1212201D01*
X1211465Y497758D01*
X1210903Y497196D01*
X1210598Y496461D01*
Y495665D01*
X1210903Y494930D01*
X1211465Y494368D01*
X1212201Y494063D01*
X1212996D01*
X1213731Y494368D01*
X1214294Y494930D01*
X1214598Y495665D01*
Y496461D01*
X1214294Y497196D01*
X1213731Y497758D01*
X1212996Y498063D01*
D02*
G37*
G36*
X1157878D02*
X1157082D01*
X1156347Y497758D01*
X1155785Y497196D01*
X1155480Y496461D01*
Y495665D01*
X1155785Y494930D01*
X1156347Y494368D01*
X1157082Y494063D01*
X1157878D01*
X1158613Y494368D01*
X1159176Y494930D01*
X1159480Y495665D01*
Y496461D01*
X1159176Y497196D01*
X1158613Y497758D01*
X1157878Y498063D01*
D02*
G37*
G36*
X1102760D02*
X1101964D01*
X1101229Y497758D01*
X1100667Y497196D01*
X1100362Y496461D01*
Y495665D01*
X1100667Y494930D01*
X1101229Y494368D01*
X1101964Y494063D01*
X1102760D01*
X1103495Y494368D01*
X1104058Y494930D01*
X1104362Y495665D01*
Y496461D01*
X1104058Y497196D01*
X1103495Y497758D01*
X1102760Y498063D01*
D02*
G37*
%LPD*%
D13*
X1087100Y747300D02*
G03*
X1082100Y742300I0J-5000D01*
G01*
X1273100D02*
G03*
X1268100Y747300I-5000J0D01*
G01*
Y442700D02*
G03*
X1273100Y447700I0J5000D01*
G01*
X1082100D02*
G03*
X1087100Y442700I5000J0D01*
G01*
X1082100Y737121D02*
Y742300D01*
X1087100Y747300D02*
X1268100D01*
X1273100Y447841D02*
Y742300D01*
Y447700D02*
Y447841D01*
X1087100Y442700D02*
X1268100D01*
X1082100Y447700D02*
Y737121D01*
D15*
X1191310Y720818D02*
X1227687D01*
X1191310D02*
Y747196D01*
X1227687Y720818D02*
Y747196D01*
X1122861Y675036D02*
X1128765D01*
Y672084D01*
X1127781Y671100D01*
X1125813D01*
X1124829Y672084D01*
Y675036D01*
X1122861Y669132D02*
Y667164D01*
Y668148D01*
X1128765D01*
X1127781Y669132D01*
D49*
X1182200Y618128D02*
D03*
X1151975Y581289D02*
D03*
X1115215Y580852D02*
D03*
X1105100Y558500D02*
D03*
X1183444Y558403D02*
D03*
X1182200Y629800D02*
D03*
X1225200Y608051D02*
D03*
X1168800Y649711D02*
D03*
X1200445Y651643D02*
D03*
X1230220D02*
D03*
X1250300Y715700D02*
D03*
X1257700D02*
D03*
Y707513D02*
D03*
D50*
X1235739Y628510D02*
D03*
X1245600Y614600D02*
D03*
X1211101Y532600D02*
D03*
X1136100D02*
D03*
X1191920Y580821D02*
D03*
X1226975D02*
D03*
X1234144Y633384D02*
D03*
M02*
