G04*
G04 #@! TF.GenerationSoftware,Altium Limited,Altium Designer,24.2.2 (26)*
G04*
G04 Layer_Physical_Order=4*
G04 Layer_Color=16711680*
%FSLAX25Y25*%
%MOIN*%
G70*
G04*
G04 #@! TF.SameCoordinates,3758B99F-9DEC-4DD0-BAA5-DFD1AAF1D411*
G04*
G04*
G04 #@! TF.FilePolarity,Positive*
G04*
G01*
G75*
%ADD11C,0.00787*%
%ADD13C,0.01000*%
%ADD15C,0.00591*%
%ADD22R,0.03937X0.03543*%
%ADD23R,0.03543X0.03937*%
G04:AMPARAMS|DCode=39|XSize=39.37mil|YSize=86.61mil|CornerRadius=19.68mil|HoleSize=0mil|Usage=FLASHONLY|Rotation=180.000|XOffset=0mil|YOffset=0mil|HoleType=Round|Shape=RoundedRectangle|*
%AMROUNDEDRECTD39*
21,1,0.03937,0.04724,0,0,180.0*
21,1,0.00000,0.08661,0,0,180.0*
1,1,0.03937,0.00000,0.02362*
1,1,0.03937,0.00000,0.02362*
1,1,0.03937,0.00000,-0.02362*
1,1,0.03937,0.00000,-0.02362*
%
%ADD39ROUNDEDRECTD39*%
G04:AMPARAMS|DCode=40|XSize=39.37mil|YSize=70.87mil|CornerRadius=19.68mil|HoleSize=0mil|Usage=FLASHONLY|Rotation=180.000|XOffset=0mil|YOffset=0mil|HoleType=Round|Shape=RoundedRectangle|*
%AMROUNDEDRECTD40*
21,1,0.03937,0.03150,0,0,180.0*
21,1,0.00000,0.07087,0,0,180.0*
1,1,0.03937,0.00000,0.01575*
1,1,0.03937,0.00000,0.01575*
1,1,0.03937,0.00000,-0.01575*
1,1,0.03937,0.00000,-0.01575*
%
%ADD40ROUNDEDRECTD40*%
%ADD45C,0.01575*%
G04:AMPARAMS|DCode=47|XSize=62.99mil|YSize=62.99mil|CornerRadius=15.75mil|HoleSize=0mil|Usage=FLASHONLY|Rotation=270.000|XOffset=0mil|YOffset=0mil|HoleType=Round|Shape=RoundedRectangle|*
%AMROUNDEDRECTD47*
21,1,0.06299,0.03150,0,0,270.0*
21,1,0.03150,0.06299,0,0,270.0*
1,1,0.03150,-0.01575,-0.01575*
1,1,0.03150,-0.01575,0.01575*
1,1,0.03150,0.01575,0.01575*
1,1,0.03150,0.01575,-0.01575*
%
%ADD47ROUNDEDRECTD47*%
%ADD48C,0.06299*%
%ADD49C,0.02756*%
%ADD50C,0.02362*%
%ADD51R,0.04331X0.02362*%
G04:AMPARAMS|DCode=52|XSize=45mil|YSize=28mil|CornerRadius=4.2mil|HoleSize=0mil|Usage=FLASHONLY|Rotation=270.000|XOffset=0mil|YOffset=0mil|HoleType=Round|Shape=RoundedRectangle|*
%AMROUNDEDRECTD52*
21,1,0.04500,0.01960,0,0,270.0*
21,1,0.03660,0.02800,0,0,270.0*
1,1,0.00840,-0.00980,-0.01830*
1,1,0.00840,-0.00980,0.01830*
1,1,0.00840,0.00980,0.01830*
1,1,0.00840,0.00980,-0.01830*
%
%ADD52ROUNDEDRECTD52*%
%ADD53R,0.07874X0.05906*%
%ADD54R,0.07874X0.14961*%
%ADD55C,0.03543*%
G36*
X1269324Y746336D02*
X1270088Y746020D01*
X1270776Y745560D01*
X1271360Y744976D01*
X1271820Y744288D01*
X1272136Y743524D01*
X1272297Y742713D01*
Y742300D01*
Y447700D01*
Y447287D01*
X1272136Y446476D01*
X1271820Y445712D01*
X1271360Y445024D01*
X1270776Y444440D01*
X1270088Y443981D01*
X1269324Y443664D01*
X1268513Y443503D01*
X1086687D01*
X1085876Y443664D01*
X1085112Y443981D01*
X1084424Y444440D01*
X1083840Y445024D01*
X1083381Y445712D01*
X1083064Y446476D01*
X1082903Y447287D01*
Y447700D01*
Y742300D01*
Y742713D01*
X1083064Y743524D01*
X1083381Y744288D01*
X1083840Y744976D01*
X1084424Y745560D01*
X1085112Y746020D01*
X1085876Y746336D01*
X1086687Y746497D01*
X1268513D01*
X1269324Y746336D01*
D02*
G37*
%LPC*%
G36*
X1231625Y744102D02*
X1230897Y744006D01*
X1230219Y743725D01*
X1229636Y743279D01*
X1229190Y742696D01*
X1228909Y742018D01*
X1228813Y741291D01*
Y736566D01*
X1228909Y735839D01*
X1229190Y735160D01*
X1229636Y734578D01*
X1230219Y734131D01*
X1230897Y733850D01*
X1231625Y733755D01*
X1232352Y733850D01*
X1233030Y734131D01*
X1233613Y734578D01*
X1234059Y735160D01*
X1234340Y735839D01*
X1234436Y736566D01*
Y741291D01*
X1234340Y742018D01*
X1234059Y742696D01*
X1233613Y743279D01*
X1233030Y743725D01*
X1232352Y744006D01*
X1231625Y744102D01*
D02*
G37*
G36*
X1187372D02*
X1186645Y744006D01*
X1185967Y743725D01*
X1185384Y743279D01*
X1184938Y742696D01*
X1184657Y742018D01*
X1184561Y741291D01*
Y736566D01*
X1184657Y735839D01*
X1184938Y735160D01*
X1185384Y734578D01*
X1185967Y734131D01*
X1186645Y733850D01*
X1187372Y733755D01*
X1188100Y733850D01*
X1188778Y734131D01*
X1189361Y734578D01*
X1189807Y735160D01*
X1190088Y735839D01*
X1190184Y736566D01*
Y741291D01*
X1190088Y742018D01*
X1189807Y742696D01*
X1189361Y743279D01*
X1188778Y743725D01*
X1188100Y744006D01*
X1187372Y744102D01*
D02*
G37*
G36*
X1231625Y727567D02*
X1230897Y727471D01*
X1230219Y727190D01*
X1229636Y726743D01*
X1229190Y726161D01*
X1228909Y725483D01*
X1228813Y724755D01*
Y721606D01*
X1228909Y720878D01*
X1229190Y720200D01*
X1229636Y719618D01*
X1230219Y719171D01*
X1230897Y718890D01*
X1231625Y718794D01*
X1232352Y718890D01*
X1233030Y719171D01*
X1233613Y719618D01*
X1234059Y720200D01*
X1234340Y720878D01*
X1234436Y721606D01*
Y724755D01*
X1234340Y725483D01*
X1234059Y726161D01*
X1233613Y726743D01*
X1233030Y727190D01*
X1232352Y727471D01*
X1231625Y727567D01*
D02*
G37*
G36*
X1187372D02*
X1186645Y727471D01*
X1185967Y727190D01*
X1185384Y726743D01*
X1184938Y726161D01*
X1184657Y725483D01*
X1184561Y724755D01*
Y721606D01*
X1184657Y720878D01*
X1184938Y720200D01*
X1185384Y719618D01*
X1185967Y719171D01*
X1186645Y718890D01*
X1187372Y718794D01*
X1188100Y718890D01*
X1188778Y719171D01*
X1189361Y719618D01*
X1189807Y720200D01*
X1190088Y720878D01*
X1190184Y721606D01*
Y724755D01*
X1190088Y725483D01*
X1189807Y726161D01*
X1189361Y726743D01*
X1188778Y727190D01*
X1188100Y727471D01*
X1187372Y727567D01*
D02*
G37*
G36*
X1222339Y715180D02*
X1221465D01*
X1220657Y714846D01*
X1220039Y714228D01*
X1219705Y713420D01*
Y712546D01*
X1220039Y711739D01*
X1220657Y711121D01*
X1221465Y710787D01*
X1221569D01*
X1222005Y710351D01*
Y708587D01*
X1221052D01*
Y707438D01*
X1218673D01*
X1217570Y708540D01*
X1217237Y709344D01*
X1216619Y709962D01*
X1215812Y710297D01*
X1214938D01*
X1214130Y709962D01*
X1213513Y709344D01*
X1213178Y708537D01*
Y707663D01*
X1213513Y706856D01*
X1214130Y706238D01*
X1214938Y705903D01*
X1215575D01*
X1216836Y704642D01*
X1217368Y704287D01*
X1217994Y704162D01*
X1221052D01*
Y703013D01*
X1222005D01*
Y700527D01*
X1218843D01*
Y692983D01*
X1228354D01*
Y700527D01*
X1225280D01*
Y703013D01*
X1226186D01*
Y702832D01*
X1228458D01*
Y705800D01*
Y708769D01*
X1226186D01*
Y708587D01*
X1225280D01*
Y711029D01*
X1225156Y711656D01*
X1224801Y712188D01*
X1224098Y712890D01*
Y713420D01*
X1223764Y714228D01*
X1223146Y714846D01*
X1222339Y715180D01*
D02*
G37*
G36*
X1231729Y708769D02*
X1229458D01*
Y706300D01*
X1231729D01*
Y708769D01*
D02*
G37*
G36*
X1242543D02*
X1240271D01*
Y706300D01*
X1242543D01*
Y708769D01*
D02*
G37*
G36*
X1259500Y719689D02*
X1248313D01*
X1247994Y719625D01*
X1247723Y719444D01*
X1246996Y718717D01*
X1246987Y718704D01*
X1246974Y718695D01*
X1246300Y717968D01*
X1246223Y717842D01*
X1246141Y717720D01*
X1246138Y717704D01*
X1246130Y717690D01*
X1246106Y717545D01*
X1246077Y717400D01*
Y709160D01*
X1245814Y708769D01*
X1243543D01*
Y705800D01*
Y702832D01*
X1245745D01*
Y695999D01*
X1243646D01*
Y690313D01*
X1228354D01*
Y691472D01*
X1218843D01*
Y683928D01*
X1228354D01*
Y685087D01*
X1243646D01*
Y679401D01*
X1253158D01*
Y695999D01*
X1250970D01*
Y703289D01*
X1251129Y703419D01*
X1259500D01*
X1259513Y703422D01*
X1259526Y703419D01*
X1259672Y703453D01*
X1259820Y703482D01*
X1259831Y703490D01*
X1259844Y703493D01*
X1259966Y703580D01*
X1260090Y703663D01*
X1260098Y703675D01*
X1260109Y703682D01*
X1260827Y704447D01*
X1261589Y705210D01*
X1261770Y705480D01*
X1261834Y705800D01*
Y717400D01*
X1261831Y717413D01*
X1261833Y717425D01*
X1261800Y717572D01*
X1261770Y717720D01*
X1261763Y717730D01*
X1261760Y717743D01*
X1261673Y717865D01*
X1261589Y717990D01*
X1261579Y717998D01*
X1261571Y718008D01*
X1260808Y718726D01*
X1260090Y719444D01*
X1259820Y719625D01*
X1259500Y719689D01*
D02*
G37*
G36*
X1242543Y705300D02*
X1240271D01*
Y702832D01*
X1242543D01*
Y705300D01*
D02*
G37*
G36*
X1231729D02*
X1229458D01*
Y702832D01*
X1231729D01*
Y705300D01*
D02*
G37*
G36*
X1174098Y692600D02*
X1173302D01*
X1172567Y692296D01*
X1172005Y691733D01*
X1171700Y690998D01*
Y690202D01*
X1171733Y690123D01*
X1171309Y689840D01*
X1170800Y690348D01*
Y690998D01*
X1170496Y691733D01*
X1169933Y692296D01*
X1169198Y692600D01*
X1168402D01*
X1167667Y692296D01*
X1167105Y691733D01*
X1166800Y690998D01*
Y690202D01*
X1166974Y689781D01*
X1166551Y689498D01*
X1165700Y690348D01*
Y690998D01*
X1165396Y691733D01*
X1164833Y692296D01*
X1164098Y692600D01*
X1163302D01*
X1162567Y692296D01*
X1162004Y691733D01*
X1161700Y690998D01*
Y690202D01*
X1162004Y689467D01*
X1162567Y688904D01*
X1163302Y688600D01*
X1163952D01*
X1167864Y684688D01*
Y656400D01*
X1167958Y655927D01*
X1168226Y655526D01*
X1188930Y634821D01*
X1189331Y634553D01*
X1189805Y634459D01*
X1197764D01*
X1198237Y634553D01*
X1198385Y634652D01*
X1198494Y634542D01*
X1199229Y634238D01*
X1199898D01*
X1200120Y633866D01*
X1200144Y633776D01*
X1199660Y633292D01*
X1199392Y632891D01*
X1199298Y632418D01*
Y622780D01*
X1199392Y622307D01*
X1199660Y621906D01*
X1202579Y618987D01*
Y618517D01*
X1202883Y617782D01*
X1203073Y617592D01*
X1202866Y617092D01*
X1184599D01*
X1184321Y617508D01*
X1184397Y617691D01*
Y618565D01*
X1184062Y619372D01*
X1183444Y619990D01*
X1182637Y620325D01*
X1181763D01*
X1180956Y619990D01*
X1180338Y619372D01*
X1180003Y618565D01*
Y617691D01*
X1180079Y617508D01*
X1179801Y617092D01*
X1175106D01*
X1153211Y638987D01*
Y670627D01*
X1153117Y671100D01*
X1152849Y671501D01*
X1147376Y676974D01*
X1146975Y677242D01*
X1146502Y677336D01*
X1129828D01*
Y677675D01*
X1129643Y678609D01*
X1129114Y679401D01*
X1128322Y679930D01*
X1127388Y680115D01*
X1124238D01*
X1123304Y679930D01*
X1122513Y679401D01*
X1121983Y678609D01*
X1121798Y677675D01*
Y674525D01*
X1121983Y673591D01*
X1122513Y672799D01*
X1123304Y672270D01*
X1124238Y672085D01*
X1127388D01*
X1128322Y672270D01*
X1129114Y672799D01*
X1129643Y673591D01*
X1129828Y674525D01*
Y674864D01*
X1145990D01*
X1150739Y670115D01*
Y661895D01*
X1150239Y661688D01*
X1144952Y666974D01*
X1144551Y667242D01*
X1144078Y667336D01*
X1129590D01*
X1129511Y667632D01*
X1128989Y668537D01*
X1128250Y669276D01*
X1127345Y669798D01*
X1126336Y670069D01*
X1125291D01*
X1124281Y669798D01*
X1123376Y669276D01*
X1122637Y668537D01*
X1122115Y667632D01*
X1121844Y666622D01*
Y665578D01*
X1122115Y664568D01*
X1122637Y663663D01*
X1123376Y662924D01*
X1124281Y662402D01*
X1125291Y662132D01*
X1126336D01*
X1127345Y662402D01*
X1128250Y662924D01*
X1128989Y663663D01*
X1129511Y664568D01*
X1129590Y664864D01*
X1143566D01*
X1148542Y659888D01*
Y636870D01*
X1148636Y636397D01*
X1148904Y635996D01*
X1172307Y612593D01*
X1172708Y612325D01*
X1173181Y612231D01*
X1206786D01*
X1207259Y612325D01*
X1207660Y612593D01*
X1211982Y616915D01*
X1212632D01*
X1213367Y617219D01*
X1213929Y617782D01*
X1213948Y617827D01*
X1214448D01*
X1214467Y617782D01*
X1215029Y617219D01*
X1215764Y616915D01*
X1216560D01*
X1217295Y617219D01*
X1217754Y617679D01*
X1219939D01*
X1220412Y617773D01*
X1220813Y618041D01*
X1220849Y618077D01*
X1223175D01*
X1226400Y614852D01*
Y614202D01*
X1226705Y613467D01*
X1227267Y612905D01*
X1228002Y612600D01*
X1228798D01*
X1229533Y612905D01*
X1230096Y613467D01*
X1230400Y614202D01*
Y614998D01*
X1230096Y615733D01*
X1229533Y616296D01*
X1228798Y616600D01*
X1228148D01*
X1224562Y620187D01*
X1224160Y620455D01*
X1223687Y620549D01*
X1220337D01*
X1219864Y620455D01*
X1219462Y620187D01*
X1219427Y620151D01*
X1217754D01*
X1217295Y620611D01*
X1216560Y620915D01*
X1215764D01*
X1215029Y620611D01*
X1214467Y620048D01*
X1214448Y620003D01*
X1213948D01*
X1213929Y620048D01*
X1213367Y620611D01*
X1212632Y620915D01*
X1211836D01*
X1211101Y620611D01*
X1210538Y620048D01*
X1210491Y619934D01*
X1209950D01*
X1209903Y620048D01*
X1209340Y620611D01*
X1208605Y620915D01*
X1207809D01*
X1207074Y620611D01*
X1206720Y620256D01*
X1206393Y620103D01*
X1206066Y620256D01*
X1205712Y620611D01*
X1204977Y620915D01*
X1204181D01*
X1204157Y620905D01*
X1201770Y623292D01*
Y631906D01*
X1204866Y635002D01*
X1211296D01*
X1211756Y634542D01*
X1212491Y634238D01*
X1213286D01*
X1214021Y634542D01*
X1214584Y635105D01*
X1214888Y635840D01*
Y636636D01*
X1214584Y637371D01*
X1214021Y637933D01*
X1213286Y638238D01*
X1212491D01*
X1211756Y637933D01*
X1211296Y637474D01*
X1204354D01*
X1203881Y637380D01*
X1203480Y637112D01*
X1202089Y635721D01*
X1201999Y635744D01*
X1201627Y635966D01*
Y636636D01*
X1201322Y637371D01*
X1200760Y637933D01*
X1200025Y638238D01*
X1199229D01*
X1198736Y638575D01*
X1198600Y638903D01*
X1198038Y639466D01*
X1197303Y639770D01*
X1196507D01*
X1195772Y639466D01*
X1195313Y639007D01*
X1191607D01*
X1191508Y639505D01*
X1191508Y639507D01*
X1191533Y639517D01*
X1192096Y640080D01*
X1192400Y640815D01*
Y641611D01*
X1192096Y642346D01*
X1191533Y642908D01*
X1190798Y643213D01*
X1190149D01*
X1174936Y658425D01*
Y689008D01*
X1175396Y689467D01*
X1175700Y690202D01*
Y690998D01*
X1175396Y691733D01*
X1174833Y692296D01*
X1174098Y692600D01*
D02*
G37*
G36*
X1228535Y682598D02*
X1224098D01*
Y679145D01*
X1228535D01*
Y682598D01*
D02*
G37*
G36*
X1223098D02*
X1218661D01*
Y679145D01*
X1223098D01*
Y682598D01*
D02*
G37*
G36*
X1228535Y678145D02*
X1224098D01*
Y674692D01*
X1228535D01*
Y678145D01*
D02*
G37*
G36*
X1223098D02*
X1218661D01*
Y674692D01*
X1223098D01*
Y678145D01*
D02*
G37*
G36*
X1230657Y653839D02*
X1229783D01*
X1228976Y653505D01*
X1228358Y652887D01*
X1228024Y652080D01*
Y651206D01*
X1228358Y650398D01*
X1228976Y649780D01*
X1229783Y649446D01*
X1230657D01*
X1231465Y649780D01*
X1232083Y650398D01*
X1232417Y651206D01*
Y652080D01*
X1232083Y652887D01*
X1231465Y653505D01*
X1230657Y653839D01*
D02*
G37*
G36*
X1200882D02*
X1200008D01*
X1199201Y653505D01*
X1198582Y652887D01*
X1198248Y652080D01*
Y651206D01*
X1198582Y650398D01*
X1199201Y649780D01*
X1200008Y649446D01*
X1200882D01*
X1201689Y649780D01*
X1202307Y650398D01*
X1202642Y651206D01*
Y652080D01*
X1202307Y652887D01*
X1201689Y653505D01*
X1200882Y653839D01*
D02*
G37*
G36*
X1169237Y651908D02*
X1168363D01*
X1167556Y651574D01*
X1166938Y650956D01*
X1166603Y650148D01*
Y649274D01*
X1166938Y648467D01*
X1167556Y647849D01*
X1168363Y647514D01*
X1169237D01*
X1170045Y647849D01*
X1170662Y648467D01*
X1170997Y649274D01*
Y650148D01*
X1170662Y650956D01*
X1170045Y651574D01*
X1169237Y651908D01*
D02*
G37*
G36*
X1234542Y635384D02*
X1233746D01*
X1233011Y635079D01*
X1232449Y634516D01*
X1232144Y633781D01*
Y632986D01*
X1232449Y632251D01*
X1233011Y631688D01*
X1233746Y631384D01*
X1234542D01*
X1235277Y631688D01*
X1235840Y632251D01*
X1236144Y632986D01*
Y633781D01*
X1235840Y634516D01*
X1235277Y635079D01*
X1234542Y635384D01*
D02*
G37*
G36*
X1182637Y631997D02*
X1181763D01*
X1180956Y631662D01*
X1180338Y631044D01*
X1180003Y630237D01*
Y629363D01*
X1180338Y628556D01*
X1180956Y627938D01*
X1181763Y627603D01*
X1182637D01*
X1183444Y627938D01*
X1184062Y628556D01*
X1184397Y629363D01*
Y630237D01*
X1184062Y631044D01*
X1183444Y631662D01*
X1182637Y631997D01*
D02*
G37*
G36*
X1245998Y616600D02*
X1245202D01*
X1244467Y616296D01*
X1243904Y615733D01*
X1243600Y614998D01*
Y614202D01*
X1243904Y613467D01*
X1244467Y612905D01*
X1245202Y612600D01*
X1245998D01*
X1246733Y612905D01*
X1247296Y613467D01*
X1247600Y614202D01*
Y614998D01*
X1247296Y615733D01*
X1246733Y616296D01*
X1245998Y616600D01*
D02*
G37*
G36*
X1225637Y610248D02*
X1224763D01*
X1223956Y609913D01*
X1223338Y609295D01*
X1223003Y608488D01*
Y607614D01*
X1223338Y606807D01*
X1223956Y606189D01*
X1224763Y605854D01*
X1225637D01*
X1226445Y606189D01*
X1227062Y606807D01*
X1227397Y607614D01*
Y608488D01*
X1227062Y609295D01*
X1226445Y609913D01*
X1225637Y610248D01*
D02*
G37*
G36*
X1225598Y636800D02*
X1224802D01*
X1224067Y636496D01*
X1223505Y635933D01*
X1223200Y635198D01*
Y634402D01*
X1223505Y633667D01*
X1224067Y633105D01*
X1224802Y632800D01*
X1225298D01*
X1225870Y632229D01*
X1225610Y631820D01*
X1225591Y631800D01*
X1224802D01*
X1224067Y631496D01*
X1223505Y630933D01*
X1223200Y630198D01*
Y629402D01*
X1223505Y628667D01*
X1224067Y628104D01*
X1224802Y627800D01*
X1225598D01*
X1226333Y628104D01*
X1226620Y628392D01*
X1227157D01*
X1234755Y620794D01*
Y597257D01*
X1231443Y593945D01*
X1171436D01*
X1170921Y593842D01*
X1170485Y593551D01*
X1163714Y586780D01*
X1160801D01*
X1160435Y586780D01*
X1159935Y586780D01*
X1155120D01*
Y581205D01*
X1156366D01*
Y573709D01*
X1153057Y570401D01*
X1148991D01*
Y569746D01*
X1137969D01*
X1137514Y570201D01*
Y572767D01*
X1137514Y573133D01*
X1137514Y573633D01*
Y578448D01*
X1131939D01*
Y577226D01*
X1129223D01*
Y577881D01*
X1123254D01*
Y576545D01*
X1123000D01*
X1122485Y576442D01*
X1122049Y576151D01*
X1121652Y575754D01*
X1121648Y575751D01*
X1116298Y570401D01*
X1112231D01*
Y566401D01*
X1118199D01*
Y568499D01*
X1122611Y572911D01*
X1123073Y572720D01*
Y572641D01*
X1126239D01*
X1129404D01*
Y574322D01*
X1129815Y574536D01*
X1131586D01*
X1131939Y574183D01*
X1131939Y573267D01*
X1131939Y572767D01*
Y567952D01*
X1135612D01*
X1136115Y567450D01*
X1136551Y567159D01*
X1137065Y567056D01*
X1148991D01*
Y566401D01*
X1154959D01*
Y568499D01*
X1158661Y572201D01*
X1158953Y572638D01*
X1159055Y573152D01*
Y580852D01*
X1159409Y581205D01*
X1160301Y581205D01*
X1160801Y581205D01*
X1161681D01*
Y577881D01*
X1160014D01*
Y574322D01*
X1159833D01*
Y572641D01*
X1162998D01*
X1166164D01*
Y574322D01*
X1165983D01*
Y577881D01*
X1164370D01*
Y581205D01*
X1165616D01*
Y584878D01*
X1171993Y591255D01*
X1232000D01*
X1232515Y591358D01*
X1232951Y591649D01*
X1236171Y594869D01*
X1236633Y594678D01*
Y587103D01*
X1236279Y586749D01*
X1235387Y586749D01*
X1234887Y586749D01*
X1230072D01*
Y581174D01*
X1231318D01*
Y573661D01*
X1228057Y570400D01*
X1223991D01*
Y569745D01*
X1214742D01*
X1214287Y570200D01*
Y572767D01*
X1214287Y573133D01*
X1214287Y573633D01*
Y578448D01*
X1208713D01*
Y577226D01*
X1205996D01*
Y577881D01*
X1200028D01*
Y576545D01*
X1199758D01*
X1199244Y576442D01*
X1198807Y576151D01*
X1194150Y571493D01*
X1194123Y571453D01*
X1193071Y570401D01*
X1189004D01*
Y566401D01*
X1194973D01*
Y568499D01*
X1196052Y569578D01*
X1196079Y569619D01*
X1199385Y572925D01*
X1199846Y572733D01*
Y572641D01*
X1203012D01*
X1206177D01*
Y574322D01*
X1206588Y574536D01*
X1208359D01*
X1208713Y574183D01*
X1208713Y573267D01*
X1208713Y572767D01*
Y567952D01*
X1212386D01*
X1212889Y567449D01*
X1213325Y567158D01*
X1213839Y567055D01*
X1223991D01*
Y566400D01*
X1229959D01*
Y568498D01*
X1233614Y572153D01*
X1233905Y572589D01*
X1234008Y573104D01*
Y580821D01*
X1234361Y581174D01*
X1235253Y581174D01*
X1235753Y581174D01*
X1236654D01*
Y577880D01*
X1235014D01*
Y574321D01*
X1234833D01*
Y572640D01*
X1237998D01*
X1241164D01*
Y574321D01*
X1240983D01*
Y577880D01*
X1239343D01*
Y581174D01*
X1240568D01*
Y586749D01*
X1239322D01*
Y622022D01*
X1239220Y622537D01*
X1238929Y622973D01*
X1235853Y626049D01*
X1236045Y626510D01*
X1236137D01*
X1236872Y626815D01*
X1237434Y627378D01*
X1237739Y628113D01*
Y628908D01*
X1237434Y629643D01*
X1236872Y630206D01*
X1236137Y630510D01*
X1235341D01*
X1234606Y630206D01*
X1234043Y629643D01*
X1233739Y628908D01*
Y628816D01*
X1233277Y628625D01*
X1227200Y634702D01*
Y635198D01*
X1226896Y635933D01*
X1226333Y636496D01*
X1225598Y636800D01*
D02*
G37*
G36*
X1192317Y582821D02*
X1191522D01*
X1190787Y582516D01*
X1190224Y581954D01*
X1189920Y581219D01*
Y580423D01*
X1190224Y579688D01*
X1190575Y579337D01*
Y577881D01*
X1189004D01*
Y573881D01*
X1194973D01*
Y577881D01*
X1193264D01*
Y579337D01*
X1193615Y579688D01*
X1193920Y580423D01*
Y581219D01*
X1193615Y581954D01*
X1193053Y582516D01*
X1192317Y582821D01*
D02*
G37*
G36*
X1152412Y583486D02*
X1151538D01*
X1150730Y583151D01*
X1150112Y582533D01*
X1149778Y581726D01*
Y580852D01*
X1150112Y580044D01*
X1150730Y579426D01*
X1150739Y579423D01*
Y577881D01*
X1148991D01*
Y573881D01*
X1154959D01*
Y577881D01*
X1153211D01*
Y579423D01*
X1153219Y579426D01*
X1153837Y580044D01*
X1154172Y580852D01*
Y581726D01*
X1153837Y582533D01*
X1153219Y583151D01*
X1152412Y583486D01*
D02*
G37*
G36*
X1115652Y583049D02*
X1114778D01*
X1113971Y582714D01*
X1113353Y582096D01*
X1113018Y581289D01*
Y580415D01*
X1113353Y579607D01*
X1113870Y579090D01*
Y577881D01*
X1112231D01*
Y573881D01*
X1118199D01*
Y577881D01*
X1116560D01*
Y579090D01*
X1117077Y579607D01*
X1117412Y580415D01*
Y581289D01*
X1117077Y582096D01*
X1116459Y582714D01*
X1115652Y583049D01*
D02*
G37*
G36*
X1227373Y582821D02*
X1226577D01*
X1225842Y582516D01*
X1225279Y581954D01*
X1224975Y581219D01*
Y580423D01*
X1225279Y579688D01*
X1225630Y579337D01*
Y577880D01*
X1223991D01*
Y573880D01*
X1229959D01*
Y577880D01*
X1228320D01*
Y579337D01*
X1228670Y579688D01*
X1228975Y580423D01*
Y581219D01*
X1228670Y581954D01*
X1228108Y582516D01*
X1227373Y582821D01*
D02*
G37*
G36*
X1129404Y571641D02*
X1126239D01*
X1123073D01*
Y569960D01*
X1123254D01*
Y566401D01*
X1124898D01*
Y561389D01*
X1123652D01*
Y560239D01*
X1120436D01*
Y561389D01*
X1115621D01*
X1115254Y561389D01*
X1114754Y561389D01*
X1109939D01*
Y560138D01*
X1106569D01*
X1106345Y560362D01*
X1105537Y560697D01*
X1104663D01*
X1103856Y560362D01*
X1103238Y559745D01*
X1102903Y558937D01*
Y558063D01*
X1103238Y557256D01*
X1103856Y556638D01*
X1104663Y556303D01*
X1105537D01*
X1106345Y556638D01*
X1106569Y556862D01*
X1109939D01*
Y555814D01*
X1114754D01*
X1115121Y555814D01*
X1115621Y555814D01*
X1120436D01*
Y556964D01*
X1123652D01*
Y555814D01*
X1128786D01*
Y555633D01*
X1131057D01*
Y558602D01*
Y561570D01*
X1128786D01*
Y561389D01*
X1127587D01*
Y566401D01*
X1129223D01*
Y569960D01*
X1129404D01*
Y571641D01*
D02*
G37*
G36*
X1241164Y571640D02*
X1237998D01*
X1234833D01*
Y569959D01*
X1235014D01*
Y566400D01*
X1236654D01*
Y561387D01*
X1235443D01*
Y560238D01*
X1229820D01*
Y561387D01*
X1224686D01*
Y561568D01*
X1222414D01*
Y558600D01*
Y555631D01*
X1224686D01*
Y555813D01*
X1229820D01*
Y556962D01*
X1235443D01*
Y555813D01*
X1238203D01*
X1238395Y555351D01*
X1224949Y541905D01*
X1224658Y541469D01*
X1224555Y540954D01*
Y528548D01*
X1223113D01*
Y527285D01*
X1221344D01*
Y527770D01*
X1221248Y528254D01*
X1220974Y528663D01*
X1220564Y528937D01*
X1220081Y529033D01*
X1218121D01*
X1217637Y528937D01*
X1217228Y528663D01*
X1216954Y528254D01*
X1216858Y527770D01*
Y524110D01*
X1216954Y523627D01*
X1217228Y523217D01*
X1217637Y522943D01*
X1218121Y522847D01*
X1220081D01*
X1220564Y522943D01*
X1220974Y523217D01*
X1221248Y523627D01*
X1221344Y524110D01*
Y524595D01*
X1223113D01*
Y523414D01*
X1222932D01*
Y521143D01*
X1225900D01*
X1228868D01*
Y523414D01*
X1228687D01*
Y528548D01*
X1227245D01*
Y540397D01*
X1242660Y555813D01*
X1245939D01*
Y561387D01*
X1241125D01*
X1240758Y561387D01*
Y561387D01*
X1240625D01*
Y561387D01*
X1239343D01*
Y566400D01*
X1240983D01*
Y569959D01*
X1241164D01*
Y571640D01*
D02*
G37*
G36*
X1206177Y571641D02*
X1203012D01*
X1199846D01*
Y569960D01*
X1200028D01*
Y566401D01*
X1201667D01*
Y561387D01*
X1200451D01*
Y560238D01*
X1197235D01*
Y561387D01*
X1192420D01*
X1192054Y561387D01*
X1191554Y561387D01*
X1186739D01*
Y560041D01*
X1184914D01*
X1184689Y560266D01*
X1183881Y560600D01*
X1183008D01*
X1182200Y560266D01*
X1181582Y559648D01*
X1181248Y558840D01*
Y557966D01*
X1181582Y557159D01*
X1182200Y556541D01*
X1183008Y556206D01*
X1183881D01*
X1184689Y556541D01*
X1184914Y556765D01*
X1186739D01*
Y555813D01*
X1191554D01*
X1191920Y555813D01*
X1192420Y555813D01*
X1197235D01*
Y556962D01*
X1200451D01*
Y555813D01*
X1205585D01*
Y555631D01*
X1207857D01*
Y558600D01*
Y561568D01*
X1205585D01*
Y561387D01*
X1204357D01*
Y566401D01*
X1205996D01*
Y569960D01*
X1206177D01*
Y571641D01*
D02*
G37*
G36*
X1166164Y571641D02*
X1162998D01*
X1159833D01*
Y569960D01*
X1160014D01*
Y566401D01*
X1161654D01*
Y561417D01*
X1160368D01*
Y560138D01*
X1155931D01*
Y561287D01*
X1150798D01*
Y561469D01*
X1148526D01*
Y558500D01*
Y555532D01*
X1150798D01*
Y555713D01*
X1155931D01*
Y556862D01*
X1160368D01*
Y555843D01*
X1163128D01*
X1163319Y555381D01*
X1150249Y542311D01*
X1149958Y541874D01*
X1149855Y541360D01*
Y528548D01*
X1148413D01*
Y527285D01*
X1146344D01*
Y527770D01*
X1146248Y528254D01*
X1145974Y528663D01*
X1145564Y528937D01*
X1145081Y529033D01*
X1143121D01*
X1142637Y528937D01*
X1142228Y528663D01*
X1141954Y528254D01*
X1141858Y527770D01*
Y524110D01*
X1141954Y523627D01*
X1142228Y523217D01*
X1142637Y522943D01*
X1143121Y522847D01*
X1145081D01*
X1145564Y522943D01*
X1145974Y523217D01*
X1146248Y523627D01*
X1146344Y524110D01*
Y524595D01*
X1148413D01*
Y523414D01*
X1148232D01*
Y521143D01*
X1151200D01*
X1154169D01*
Y523414D01*
X1153987D01*
Y528548D01*
X1152545D01*
Y540803D01*
X1167585Y555843D01*
X1170864D01*
Y561417D01*
X1166049D01*
X1165683Y561417D01*
Y561417D01*
X1165549D01*
Y561417D01*
X1164343D01*
Y566401D01*
X1165983D01*
Y569960D01*
X1166164D01*
Y571641D01*
D02*
G37*
G36*
X1134329Y561570D02*
X1132057D01*
Y559102D01*
X1134329D01*
Y561570D01*
D02*
G37*
G36*
X1211128Y561568D02*
X1208857D01*
Y559100D01*
X1211128D01*
Y561568D01*
D02*
G37*
G36*
X1221414Y561568D02*
X1219143D01*
Y559100D01*
X1221414D01*
Y561568D01*
D02*
G37*
G36*
X1147526Y561469D02*
X1145254D01*
Y559000D01*
X1147526D01*
Y561469D01*
D02*
G37*
G36*
X1134329Y558102D02*
X1132057D01*
Y555633D01*
X1134329D01*
Y558102D01*
D02*
G37*
G36*
X1211128Y558100D02*
X1208857D01*
Y555631D01*
X1211128D01*
Y558100D01*
D02*
G37*
G36*
X1221414Y558100D02*
X1219143D01*
Y555631D01*
X1221414D01*
Y558100D01*
D02*
G37*
G36*
X1147526Y558000D02*
X1145254D01*
Y555532D01*
X1147526D01*
Y558000D01*
D02*
G37*
G36*
X1211499Y534600D02*
X1210703D01*
X1209968Y534296D01*
X1209405Y533733D01*
X1209101Y532998D01*
Y532202D01*
X1209405Y531467D01*
X1209865Y531008D01*
Y528982D01*
X1209637Y528937D01*
X1209228Y528663D01*
X1208954Y528254D01*
X1208858Y527770D01*
Y524110D01*
X1208954Y523627D01*
X1209228Y523217D01*
X1209637Y522943D01*
X1210121Y522847D01*
X1212081D01*
X1212564Y522943D01*
X1212974Y523217D01*
X1213248Y523627D01*
X1213344Y524110D01*
Y527770D01*
X1213248Y528254D01*
X1212974Y528663D01*
X1212564Y528937D01*
X1212337Y528982D01*
Y531008D01*
X1212796Y531467D01*
X1213101Y532202D01*
Y532998D01*
X1212796Y533733D01*
X1212234Y534296D01*
X1211499Y534600D01*
D02*
G37*
G36*
X1136498D02*
X1135702D01*
X1134967Y534296D01*
X1134404Y533733D01*
X1134100Y532998D01*
Y532202D01*
X1134404Y531467D01*
X1134864Y531008D01*
Y528982D01*
X1134637Y528937D01*
X1134228Y528663D01*
X1133954Y528254D01*
X1133858Y527770D01*
Y524110D01*
X1133954Y523627D01*
X1134228Y523217D01*
X1134637Y522943D01*
X1135121Y522847D01*
X1137081D01*
X1137564Y522943D01*
X1137974Y523217D01*
X1138248Y523627D01*
X1138344Y524110D01*
Y527770D01*
X1138248Y528254D01*
X1137974Y528663D01*
X1137564Y528937D01*
X1137337Y528982D01*
Y531008D01*
X1137796Y531467D01*
X1138100Y532202D01*
Y532998D01*
X1137796Y533733D01*
X1137233Y534296D01*
X1136498Y534600D01*
D02*
G37*
G36*
X1228868Y520143D02*
X1226400D01*
Y517871D01*
X1228868D01*
Y520143D01*
D02*
G37*
G36*
X1225400D02*
X1222932D01*
Y517871D01*
X1225400D01*
Y520143D01*
D02*
G37*
G36*
X1154169D02*
X1151700D01*
Y517871D01*
X1154169D01*
Y520143D01*
D02*
G37*
G36*
X1150700D02*
X1148232D01*
Y517871D01*
X1150700D01*
Y520143D01*
D02*
G37*
G36*
X1216081Y520218D02*
X1215601D01*
Y517440D01*
X1217529D01*
Y518770D01*
X1217418Y519324D01*
X1217105Y519794D01*
X1216635Y520108D01*
X1216081Y520218D01*
D02*
G37*
G36*
X1141081D02*
X1140601D01*
Y517440D01*
X1142529D01*
Y518770D01*
X1142418Y519324D01*
X1142105Y519794D01*
X1141635Y520108D01*
X1141081Y520218D01*
D02*
G37*
G36*
X1214601D02*
X1214121D01*
X1213567Y520108D01*
X1213097Y519794D01*
X1212783Y519324D01*
X1212673Y518770D01*
Y517440D01*
X1214601D01*
Y520218D01*
D02*
G37*
G36*
X1139601D02*
X1139121D01*
X1138567Y520108D01*
X1138097Y519794D01*
X1137783Y519324D01*
X1137673Y518770D01*
Y517440D01*
X1139601D01*
Y520218D01*
D02*
G37*
G36*
X1235645Y525578D02*
X1234556D01*
X1233504Y525296D01*
X1232560Y524751D01*
X1231790Y523981D01*
X1231245Y523037D01*
X1230963Y521985D01*
Y520895D01*
X1231245Y519843D01*
X1231790Y518900D01*
X1232560Y518129D01*
X1233504Y517585D01*
X1234556Y517303D01*
X1235645D01*
X1236698Y517585D01*
X1237641Y518129D01*
X1238412Y518900D01*
X1238956Y519843D01*
X1239238Y520895D01*
Y521985D01*
X1238956Y523037D01*
X1238412Y523981D01*
X1237641Y524751D01*
X1236698Y525296D01*
X1235645Y525578D01*
D02*
G37*
G36*
X1195646D02*
X1194556D01*
X1193504Y525296D01*
X1192560Y524751D01*
X1191790Y523981D01*
X1191245Y523037D01*
X1190963Y521985D01*
Y520895D01*
X1191245Y519843D01*
X1191790Y518900D01*
X1192560Y518129D01*
X1193504Y517585D01*
X1194556Y517303D01*
X1195646D01*
X1196698Y517585D01*
X1197641Y518129D01*
X1198412Y518900D01*
X1198956Y519843D01*
X1199238Y520895D01*
Y521985D01*
X1198956Y523037D01*
X1198412Y523981D01*
X1197641Y524751D01*
X1196698Y525296D01*
X1195646Y525578D01*
D02*
G37*
G36*
X1160645D02*
X1159556D01*
X1158504Y525296D01*
X1157560Y524751D01*
X1156790Y523981D01*
X1156245Y523037D01*
X1155963Y521985D01*
Y520895D01*
X1156245Y519843D01*
X1156790Y518900D01*
X1157560Y518129D01*
X1158504Y517585D01*
X1159556Y517303D01*
X1160645D01*
X1161698Y517585D01*
X1162641Y518129D01*
X1163412Y518900D01*
X1163956Y519843D01*
X1164238Y520895D01*
Y521985D01*
X1163956Y523037D01*
X1163412Y523981D01*
X1162641Y524751D01*
X1161698Y525296D01*
X1160645Y525578D01*
D02*
G37*
G36*
X1120646D02*
X1119556D01*
X1118504Y525296D01*
X1117560Y524751D01*
X1116790Y523981D01*
X1116245Y523037D01*
X1115963Y521985D01*
Y520895D01*
X1116245Y519843D01*
X1116790Y518900D01*
X1117560Y518129D01*
X1118504Y517585D01*
X1119556Y517303D01*
X1120646D01*
X1121698Y517585D01*
X1122641Y518129D01*
X1123412Y518900D01*
X1123956Y519843D01*
X1124238Y520895D01*
Y521985D01*
X1123956Y523037D01*
X1123412Y523981D01*
X1122641Y524751D01*
X1121698Y525296D01*
X1120646Y525578D01*
D02*
G37*
G36*
X1217529Y516440D02*
X1215601D01*
Y513662D01*
X1216081D01*
X1216635Y513773D01*
X1217105Y514086D01*
X1217418Y514556D01*
X1217529Y515110D01*
Y516440D01*
D02*
G37*
G36*
X1214601D02*
X1212673D01*
Y515110D01*
X1212783Y514556D01*
X1213097Y514086D01*
X1213567Y513773D01*
X1214121Y513662D01*
X1214601D01*
Y516440D01*
D02*
G37*
G36*
X1142529D02*
X1140601D01*
Y513662D01*
X1141081D01*
X1141635Y513773D01*
X1142105Y514086D01*
X1142418Y514556D01*
X1142529Y515110D01*
Y516440D01*
D02*
G37*
G36*
X1139601D02*
X1137673D01*
Y515110D01*
X1137783Y514556D01*
X1138097Y514086D01*
X1138567Y513773D01*
X1139121Y513662D01*
X1139601D01*
Y516440D01*
D02*
G37*
%LPD*%
G36*
X1260227Y718127D02*
X1260999Y717400D01*
Y705800D01*
X1260227Y705028D01*
X1259500Y704254D01*
X1251129D01*
Y705300D01*
X1248358D01*
Y705800D01*
X1247858D01*
Y708769D01*
X1246912D01*
Y717400D01*
X1247587Y718127D01*
X1248313Y718854D01*
X1259500D01*
X1260227Y718127D01*
D02*
G37*
%LPC*%
G36*
X1251129Y708769D02*
X1248858D01*
Y706300D01*
X1251129D01*
Y708769D01*
D02*
G37*
%LPD*%
D11*
X1144078Y666100D02*
X1149778Y660400D01*
X1125813Y666100D02*
X1144078D01*
X1149778Y636870D02*
Y660400D01*
X1173181Y613467D02*
X1206786D01*
X1149778Y636870D02*
X1173181Y613467D01*
X1206786D02*
X1212234Y618915D01*
X1174594Y615856D02*
X1205148D01*
X1208207Y618915D01*
X1125813Y676100D02*
X1146502D01*
X1151975Y670627D01*
Y638475D02*
Y670627D01*
Y638475D02*
X1174594Y615856D01*
X1200534Y622780D02*
X1204399Y618915D01*
X1204579D01*
X1200534Y622780D02*
Y632418D01*
X1216162Y618915D02*
X1219939D01*
X1220337Y619313D01*
X1223687D01*
X1228400Y614600D01*
X1204354Y636238D02*
X1212889D01*
X1200534Y632418D02*
X1204354Y636238D01*
X1151975Y575881D02*
Y581289D01*
X1199325Y635936D02*
X1199627Y636238D01*
X1198005Y635936D02*
X1199325D01*
X1197764Y635696D02*
X1198005Y635936D01*
X1136100Y525941D02*
Y532600D01*
X1136100Y532600D02*
X1136100Y532600D01*
Y525941D02*
X1136101Y525940D01*
X1211101D02*
Y532600D01*
X1112428Y558500D02*
X1112530Y558602D01*
X1189132Y558403D02*
X1189329Y558600D01*
X1191920Y575950D02*
X1191988Y575881D01*
X1117845Y558602D02*
X1117845Y558602D01*
X1169100Y656400D02*
Y685200D01*
X1163700Y690600D02*
X1169100Y685200D01*
X1171500Y657179D02*
X1190908Y637770D01*
X1171500Y657179D02*
Y687900D01*
X1189805Y635696D02*
X1197764D01*
X1169100Y656400D02*
X1189805Y635696D01*
X1168800Y690600D02*
X1171500Y687900D01*
X1190908Y637770D02*
X1196905D01*
X1173700Y657913D02*
X1190400Y641213D01*
X1173700Y657913D02*
Y690600D01*
D13*
X1225200Y634800D02*
X1237978Y622022D01*
Y583962D02*
Y622022D01*
X1115215Y575881D02*
Y580852D01*
X1225883Y525940D02*
X1225900Y525957D01*
X1219101Y525940D02*
X1225883D01*
X1243349Y558403D02*
Y558600D01*
X1225900Y540954D02*
X1243349Y558403D01*
X1225900Y525957D02*
Y540954D01*
X1191920Y575950D02*
Y580821D01*
X1226975Y575880D02*
Y580821D01*
X1151200Y541360D02*
X1168273Y558433D01*
X1151183Y525940D02*
X1151200Y525957D01*
X1168273Y558433D02*
Y558630D01*
X1144101Y525940D02*
X1151183D01*
X1151200Y525957D02*
Y541360D01*
X1162958Y558630D02*
X1162998Y558670D01*
X1162829Y558500D02*
X1162958Y558630D01*
X1162998Y558670D02*
Y568401D01*
X1203012Y575881D02*
X1211476D01*
X1211500Y575857D01*
X1126243Y558602D02*
Y568253D01*
X1126309Y568319D01*
X1126239Y568389D02*
X1126309Y568319D01*
X1126239Y568389D02*
Y568401D01*
X1134703Y575881D02*
X1134727Y575858D01*
X1126239Y575881D02*
X1134703D01*
X1123000Y575200D02*
X1125558D01*
X1126239Y575881D01*
X1122600Y574800D02*
X1123000Y575200D01*
X1115215Y568401D02*
X1116199D01*
X1122598Y574800D01*
X1122600D01*
X1195101Y570529D02*
Y570543D01*
X1191988Y568401D02*
X1192972D01*
X1195101Y570529D01*
X1202331Y575200D02*
X1203012Y575881D01*
X1199758Y575200D02*
X1202331D01*
X1195101Y570543D02*
X1199758Y575200D01*
X1211697Y570543D02*
X1213839Y568400D01*
X1226975D01*
X1211500Y570543D02*
X1211697D01*
X1134924Y570543D02*
X1137065Y568401D01*
X1134727Y570543D02*
X1134924D01*
X1137065Y568401D02*
X1151975D01*
X1157710Y573152D02*
Y583993D01*
X1152959Y568401D02*
X1157710Y573152D01*
X1151975Y568401D02*
X1152959D01*
X1232663Y573104D02*
Y583962D01*
X1227959Y568400D02*
X1232663Y573104D01*
X1226975Y568400D02*
X1227959D01*
X1225200Y629800D02*
X1227651D01*
X1236100Y596700D02*
Y621351D01*
X1227651Y629800D02*
X1236100Y621351D01*
X1232000Y592600D02*
X1236100Y596700D01*
X1171436Y592600D02*
X1232000D01*
X1163025Y583993D02*
Y584190D01*
X1171436Y592600D01*
X1163025Y575908D02*
Y583993D01*
X1162998Y575881D02*
X1163025Y575908D01*
X1237998Y575880D02*
Y583941D01*
X1237978Y583962D02*
X1237998Y583941D01*
X1203012Y558630D02*
Y568401D01*
Y558630D02*
X1203042Y558600D01*
X1203042Y558600D02*
X1203042Y558600D01*
X1237998Y558636D02*
Y568400D01*
Y558636D02*
X1238034Y558600D01*
X1087100Y747300D02*
G03*
X1082100Y742300I0J-5000D01*
G01*
X1273100D02*
G03*
X1268100Y747300I-5000J0D01*
G01*
Y442700D02*
G03*
X1273100Y447700I0J5000D01*
G01*
X1082100D02*
G03*
X1087100Y442700I5000J0D01*
G01*
X1082100Y737121D02*
Y742300D01*
X1087100Y747300D02*
X1268100D01*
X1273100Y447841D02*
Y742300D01*
Y447700D02*
Y447841D01*
X1087100Y442700D02*
X1268100D01*
X1082100Y447700D02*
Y737121D01*
D15*
X1191310Y720818D02*
X1227687D01*
X1191310D02*
Y747196D01*
X1227687Y720818D02*
Y747196D01*
X1122861Y675036D02*
X1128765D01*
Y672084D01*
X1127781Y671100D01*
X1125813D01*
X1124829Y672084D01*
Y675036D01*
X1122861Y669132D02*
Y667164D01*
Y668148D01*
X1128765D01*
X1127781Y669132D01*
D22*
X1134727Y570543D02*
D03*
Y575858D02*
D03*
X1211500Y575857D02*
D03*
Y570543D02*
D03*
X1151200Y520643D02*
D03*
Y525957D02*
D03*
X1225900D02*
D03*
Y520643D02*
D03*
D23*
X1243043Y705800D02*
D03*
X1248357D02*
D03*
X1223643D02*
D03*
X1228957D02*
D03*
X1157710Y583993D02*
D03*
X1163025D02*
D03*
X1126243Y558602D02*
D03*
X1131557D02*
D03*
X1148026Y558500D02*
D03*
X1153341D02*
D03*
X1162958Y558630D02*
D03*
X1168273D02*
D03*
X1203042Y558600D02*
D03*
X1208357D02*
D03*
X1227229Y558600D02*
D03*
X1221914D02*
D03*
X1117845Y558602D02*
D03*
X1112530D02*
D03*
X1237978Y583962D02*
D03*
X1232663D02*
D03*
X1194644Y558600D02*
D03*
X1189329D02*
D03*
X1243349D02*
D03*
X1238034D02*
D03*
D39*
X1187372Y738928D02*
D03*
X1231625D02*
D03*
D40*
X1187372Y723180D02*
D03*
X1231625D02*
D03*
D45*
X1105100Y558500D02*
X1112428D01*
X1183444Y558403D02*
X1189132D01*
X1153341Y558500D02*
X1162829D01*
X1117845Y558602D02*
X1126243D01*
X1194644Y558600D02*
X1203042D01*
X1227229D02*
X1238034D01*
X1215695Y708100D02*
X1217994Y705800D01*
X1223643D01*
X1215375Y708100D02*
X1215695D01*
X1221902Y712770D02*
Y712984D01*
X1223643Y696799D02*
Y705800D01*
X1223598Y696755D02*
X1223643Y696799D01*
Y705800D02*
Y711029D01*
X1221902Y712770D02*
X1223643Y711029D01*
D47*
X1125813Y676100D02*
D03*
D48*
Y666100D02*
D03*
D49*
X1182200Y618128D02*
D03*
X1151975Y581289D02*
D03*
X1115215Y580852D02*
D03*
X1105100Y558500D02*
D03*
X1183444Y558403D02*
D03*
X1182200Y629800D02*
D03*
X1225200Y608051D02*
D03*
X1168800Y649711D02*
D03*
X1200445Y651643D02*
D03*
X1230220D02*
D03*
X1250300Y715700D02*
D03*
X1257700D02*
D03*
Y707513D02*
D03*
X1215375Y708100D02*
D03*
X1221902Y712984D02*
D03*
D50*
X1204579Y618915D02*
D03*
X1129921Y661417D02*
D03*
X1235739Y628510D02*
D03*
X1245600Y614600D02*
D03*
X1208207Y618915D02*
D03*
X1202609Y623639D02*
D03*
X1216162Y618915D02*
D03*
X1212234D02*
D03*
X1158934Y690600D02*
D03*
X1190400Y590020D02*
D03*
X1151183Y514086D02*
D03*
X1225900Y515110D02*
D03*
X1240158Y661417D02*
D03*
Y551181D02*
D03*
X1212598Y496063D02*
D03*
X1157480Y716535D02*
D03*
Y606299D02*
D03*
X1185039Y551181D02*
D03*
X1157480Y496063D02*
D03*
X1102362Y716535D02*
D03*
Y606299D02*
D03*
X1129921Y551181D02*
D03*
X1102362Y496063D02*
D03*
X1212889Y636238D02*
D03*
X1199627D02*
D03*
X1215101Y510900D02*
D03*
X1140100D02*
D03*
X1211101Y532600D02*
D03*
X1136100D02*
D03*
X1232663Y568499D02*
D03*
X1197641Y568253D02*
D03*
X1191920Y580821D02*
D03*
X1140101Y558433D02*
D03*
X1215101Y558630D02*
D03*
X1244467Y572141D02*
D03*
X1226975Y580821D02*
D03*
X1234144Y633384D02*
D03*
X1230743Y699991D02*
D03*
X1196902Y695168D02*
D03*
X1206221Y585247D02*
D03*
X1229533Y589457D02*
D03*
X1221600D02*
D03*
X1205147Y607987D02*
D03*
X1198454Y586892D02*
D03*
X1241168Y591153D02*
D03*
X1249632Y577000D02*
D03*
X1161326Y632058D02*
D03*
X1170352Y623639D02*
D03*
X1234061Y705800D02*
D03*
X1237978D02*
D03*
X1223643Y671100D02*
D03*
X1182700Y666400D02*
D03*
X1190991Y661758D02*
D03*
X1170352Y635433D02*
D03*
X1206547Y661758D02*
D03*
X1216390D02*
D03*
X1224000D02*
D03*
X1245600Y645120D02*
D03*
Y623639D02*
D03*
Y637859D02*
D03*
X1210774Y623639D02*
D03*
Y631558D02*
D03*
X1202609D02*
D03*
X1202610Y627576D02*
D03*
X1210775D02*
D03*
X1206744Y623639D02*
D03*
X1206713Y631558D02*
D03*
Y627576D02*
D03*
X1228400Y614600D02*
D03*
X1225200Y634800D02*
D03*
Y629800D02*
D03*
X1190400Y641213D02*
D03*
X1196905Y637770D02*
D03*
X1163700Y690600D02*
D03*
X1168800D02*
D03*
X1173700D02*
D03*
D51*
X1162998Y575881D02*
D03*
Y572141D02*
D03*
Y568401D02*
D03*
X1151975D02*
D03*
Y575881D02*
D03*
X1115215D02*
D03*
Y568401D02*
D03*
X1126239D02*
D03*
Y572141D02*
D03*
Y575881D02*
D03*
X1191988D02*
D03*
Y568401D02*
D03*
X1203012D02*
D03*
Y572141D02*
D03*
Y575881D02*
D03*
X1226975Y575880D02*
D03*
Y568400D02*
D03*
X1237998D02*
D03*
Y572140D02*
D03*
Y575880D02*
D03*
D52*
X1136101Y525940D02*
D03*
X1144101D02*
D03*
X1140101Y516940D02*
D03*
X1211101Y525940D02*
D03*
X1219101D02*
D03*
X1215101Y516940D02*
D03*
D53*
X1223598Y687700D02*
D03*
Y678645D02*
D03*
Y696755D02*
D03*
D54*
X1248402Y687700D02*
D03*
D55*
X1248313D02*
X1248357Y687744D01*
Y705800D01*
X1223598Y687700D02*
X1248313D01*
M02*
