G04*
G04 #@! TF.GenerationSoftware,Altium Limited,Altium Designer,24.2.2 (26)*
G04*
G04 Layer_Color=32896*
%FSLAX25Y25*%
%MOIN*%
G70*
G04*
G04 #@! TF.SameCoordinates,3758B99F-9DEC-4DD0-BAA5-DFD1AAF1D411*
G04*
G04*
G04 #@! TF.FilePolarity,Positive*
G04*
G01*
G75*
%ADD10C,0.00984*%
%ADD11C,0.00787*%
%ADD12C,0.02000*%
%ADD13C,0.01000*%
%ADD14C,0.00500*%
%ADD15C,0.00591*%
%ADD60C,0.00300*%
G36*
X1122695Y578047D02*
X1120727D01*
Y577456D01*
X1121908Y576275D01*
X1122695D01*
Y578047D01*
D02*
G37*
G36*
X1159455D02*
X1157487D01*
Y577456D01*
X1158668Y576275D01*
X1159455D01*
Y578047D01*
D02*
G37*
G36*
X1199469D02*
X1197500D01*
Y577456D01*
X1198681Y576275D01*
X1199469D01*
Y578047D01*
D02*
G37*
G36*
X1234455Y578046D02*
X1232487D01*
Y577455D01*
X1233668Y576274D01*
X1234455D01*
Y578046D01*
D02*
G37*
D10*
X1162309Y578932D02*
G03*
X1162309Y578932I-492J0D01*
G01*
X1107325Y511440D02*
G03*
X1107325Y511440I-492J0D01*
G01*
X1125550Y578932D02*
G03*
X1125550Y578932I-492J0D01*
G01*
X1202323D02*
G03*
X1202323Y578932I-492J0D01*
G01*
X1182325Y511440D02*
G03*
X1182325Y511440I-492J0D01*
G01*
X1237309Y578932D02*
G03*
X1237309Y578932I-492J0D01*
G01*
D11*
X1157487Y578047D02*
G03*
X1159258Y576275I1772J0D01*
G01*
X1120727Y578047D02*
G03*
X1122499Y576275I1772J0D01*
G01*
X1197500Y578047D02*
G03*
X1199272Y576275I1772J0D01*
G01*
X1232487Y578046D02*
G03*
X1234258Y576274I1772J0D01*
G01*
X1221630Y673920D02*
G03*
X1221630Y673920I-394J0D01*
G01*
X1155518Y578047D02*
X1159455D01*
X1155518Y566235D02*
X1159455D01*
Y578047D01*
X1155518Y566235D02*
Y578047D01*
X1159258Y576275D02*
X1159455D01*
X1109392Y490731D02*
Y552149D01*
X1170809D01*
Y490731D02*
Y552149D01*
X1109392Y490731D02*
X1170809D01*
X1122499Y576275D02*
X1122695D01*
X1118758Y566235D02*
Y578047D01*
X1122695Y566235D02*
Y578047D01*
X1118758Y566235D02*
X1122695D01*
X1118758Y578047D02*
X1122695D01*
X1199272Y576275D02*
X1199469D01*
X1195532Y566235D02*
Y578047D01*
X1199469Y566235D02*
Y578047D01*
X1195532Y566235D02*
X1199469D01*
X1195532Y578047D02*
X1199469D01*
X1184392Y490731D02*
Y552149D01*
X1245809D01*
Y490731D02*
Y552149D01*
X1184392Y490731D02*
X1245809D01*
X1234258Y576274D02*
X1234455D01*
X1230518Y566235D02*
Y578046D01*
X1234455Y566235D02*
Y578046D01*
X1230518Y566235D02*
X1234455D01*
X1230518Y578046D02*
X1234455D01*
D12*
X1147768Y607050D02*
G03*
X1147768Y607050I-1500J0D01*
G01*
X1251132Y608950D02*
G03*
X1251132Y608950I-1500J0D01*
G01*
D13*
X1246074Y712518D02*
X1246533Y712978D01*
X1247452D01*
X1247911Y712518D01*
Y710682D01*
X1247452Y710222D01*
X1246533D01*
X1246074Y710682D01*
X1245156Y710222D02*
X1244238D01*
X1244697D01*
Y712978D01*
X1245156Y712518D01*
X1242860D02*
X1242401Y712978D01*
X1241483D01*
X1241023Y712518D01*
Y712059D01*
X1241483Y711600D01*
X1241023Y711141D01*
Y710682D01*
X1241483Y710222D01*
X1242401D01*
X1242860Y710682D01*
Y711141D01*
X1242401Y711600D01*
X1242860Y712059D01*
Y712518D01*
X1242401Y711600D02*
X1241483D01*
X1229609Y712518D02*
X1230068Y712978D01*
X1230987D01*
X1231446Y712518D01*
Y710682D01*
X1230987Y710222D01*
X1230068D01*
X1229609Y710682D01*
X1228691Y710222D02*
X1227773D01*
X1228232D01*
Y712978D01*
X1228691Y712518D01*
X1226395Y712978D02*
X1224559D01*
Y712518D01*
X1226395Y710682D01*
Y710222D01*
X1162852Y588080D02*
Y590835D01*
X1161475D01*
X1161016Y590376D01*
Y589457D01*
X1161475Y588998D01*
X1162852D01*
X1161934D02*
X1161016Y588080D01*
X1160097D02*
X1159179D01*
X1159638D01*
Y590835D01*
X1160097Y590376D01*
X1155965Y590835D02*
X1157802D01*
Y589457D01*
X1156883Y589916D01*
X1156424D01*
X1155965Y589457D01*
Y588539D01*
X1156424Y588080D01*
X1157342D01*
X1157802Y588539D01*
X1138411Y579911D02*
Y582666D01*
X1137033D01*
X1136574Y582207D01*
Y581289D01*
X1137033Y580830D01*
X1138411D01*
X1137493D02*
X1136574Y579911D01*
X1135656D02*
X1134738D01*
X1135197D01*
Y582666D01*
X1135656Y582207D01*
X1133360Y582666D02*
X1131523D01*
Y582207D01*
X1133360Y580371D01*
Y579911D01*
X1135944Y563123D02*
Y565878D01*
X1134566D01*
X1134107Y565418D01*
Y564500D01*
X1134566Y564041D01*
X1135944D01*
X1135026D02*
X1134107Y563123D01*
X1133189D02*
X1132271D01*
X1132730D01*
Y565878D01*
X1133189Y565418D01*
X1129056Y565878D02*
X1129975Y565418D01*
X1130893Y564500D01*
Y563582D01*
X1130434Y563123D01*
X1129515D01*
X1129056Y563582D01*
Y564041D01*
X1129515Y564500D01*
X1130893D01*
X1152444Y562822D02*
Y565578D01*
X1151066D01*
X1150607Y565118D01*
Y564200D01*
X1151066Y563741D01*
X1152444D01*
X1151525D02*
X1150607Y562822D01*
X1149689D02*
X1148771D01*
X1149230D01*
Y565578D01*
X1149689Y565118D01*
X1147393Y563282D02*
X1146934Y562822D01*
X1146015D01*
X1145556Y563282D01*
Y565118D01*
X1146015Y565578D01*
X1146934D01*
X1147393Y565118D01*
Y564659D01*
X1146934Y564200D01*
X1145556D01*
X1154300Y585655D02*
Y583359D01*
X1153841Y582900D01*
X1152923D01*
X1152463Y583359D01*
Y585655D01*
X1151545Y585196D02*
X1151086Y585655D01*
X1150167D01*
X1149708Y585196D01*
Y584737D01*
X1150167Y584277D01*
X1149708Y583818D01*
Y583359D01*
X1150167Y582900D01*
X1151086D01*
X1151545Y583359D01*
Y583818D01*
X1151086Y584277D01*
X1151545Y584737D01*
Y585196D01*
X1151086Y584277D02*
X1150167D01*
X1172444Y562722D02*
Y565478D01*
X1171066D01*
X1170607Y565018D01*
Y564100D01*
X1171066Y563641D01*
X1172444D01*
X1171525D02*
X1170607Y562722D01*
X1169689D02*
X1168771D01*
X1169230D01*
Y565478D01*
X1169689Y565018D01*
X1167393D02*
X1166934Y565478D01*
X1166015D01*
X1165556Y565018D01*
Y564559D01*
X1166015Y564100D01*
X1165556Y563641D01*
Y563182D01*
X1166015Y562722D01*
X1166934D01*
X1167393Y563182D01*
Y563641D01*
X1166934Y564100D01*
X1167393Y564559D01*
Y565018D01*
X1166934Y564100D02*
X1166015D01*
X1213144Y562922D02*
Y565678D01*
X1211766D01*
X1211307Y565218D01*
Y564300D01*
X1211766Y563841D01*
X1213144D01*
X1212226D02*
X1211307Y562922D01*
X1210389D02*
X1209470D01*
X1209930D01*
Y565678D01*
X1210389Y565218D01*
X1208093D02*
X1207634Y565678D01*
X1206715D01*
X1206256Y565218D01*
Y563382D01*
X1206715Y562922D01*
X1207634D01*
X1208093Y563382D01*
Y565218D01*
X1170198Y488299D02*
Y483301D01*
X1169199Y482301D01*
X1167199D01*
X1166200Y483301D01*
Y488299D01*
X1164200Y487299D02*
X1163201Y488299D01*
X1161201D01*
X1160202Y487299D01*
Y486300D01*
X1161201Y485300D01*
X1162201D01*
X1161201D01*
X1160202Y484300D01*
Y483301D01*
X1161201Y482301D01*
X1163201D01*
X1164200Y483301D01*
X1245398Y487999D02*
Y483001D01*
X1244399Y482001D01*
X1242399D01*
X1241400Y483001D01*
Y487999D01*
X1235402Y482001D02*
X1239400D01*
X1235402Y486000D01*
Y486999D01*
X1236401Y487999D01*
X1238401D01*
X1239400Y486999D01*
X1215200Y700555D02*
Y698259D01*
X1214741Y697800D01*
X1213822D01*
X1213363Y698259D01*
Y700555D01*
X1117600Y585655D02*
Y583359D01*
X1117141Y582900D01*
X1116222D01*
X1115763Y583359D01*
Y585655D01*
X1114845D02*
X1113008D01*
Y585196D01*
X1114845Y583359D01*
Y582900D01*
X1247896Y579826D02*
Y577530D01*
X1247437Y577071D01*
X1246518D01*
X1246059Y577530D01*
Y579826D01*
X1243304D02*
X1244223Y579366D01*
X1245141Y578448D01*
Y577530D01*
X1244682Y577071D01*
X1243763D01*
X1243304Y577530D01*
Y577989D01*
X1243763Y578448D01*
X1245141D01*
X1205496Y584119D02*
Y581823D01*
X1205037Y581363D01*
X1204118D01*
X1203659Y581823D01*
Y584119D01*
X1200904D02*
X1202741D01*
Y582741D01*
X1201822Y583200D01*
X1201363D01*
X1200904Y582741D01*
Y581823D01*
X1201363Y581363D01*
X1202282D01*
X1202741Y581823D01*
X1116796Y563123D02*
Y565878D01*
X1115419D01*
X1114960Y565418D01*
Y564500D01*
X1115419Y564041D01*
X1116796D01*
X1115878D02*
X1114960Y563123D01*
X1114041D02*
X1113123D01*
X1113582D01*
Y565878D01*
X1114041Y565418D01*
X1110368Y563123D02*
Y565878D01*
X1111745Y564500D01*
X1109909D01*
X1225844Y562822D02*
Y565578D01*
X1224466D01*
X1224007Y565118D01*
Y564200D01*
X1224466Y563741D01*
X1225844D01*
X1224926D02*
X1224007Y562822D01*
X1223089D02*
X1222171D01*
X1222630D01*
Y565578D01*
X1223089Y565118D01*
X1220793D02*
X1220334Y565578D01*
X1219415D01*
X1218956Y565118D01*
Y564659D01*
X1219415Y564200D01*
X1219875D01*
X1219415D01*
X1218956Y563741D01*
Y563282D01*
X1219415Y562822D01*
X1220334D01*
X1220793Y563282D01*
X1254344Y557463D02*
Y560218D01*
X1252966D01*
X1252507Y559759D01*
Y558840D01*
X1252966Y558381D01*
X1254344D01*
X1253426D02*
X1252507Y557463D01*
X1251589D02*
X1250671D01*
X1251130D01*
Y560218D01*
X1251589Y559759D01*
X1247456Y557463D02*
X1249293D01*
X1247456Y559299D01*
Y559759D01*
X1247915Y560218D01*
X1248834D01*
X1249293Y559759D01*
X1214685Y580123D02*
Y582878D01*
X1213307D01*
X1212848Y582418D01*
Y581500D01*
X1213307Y581041D01*
X1214685D01*
X1213766D02*
X1212848Y580123D01*
X1211930D02*
X1211011D01*
X1211471D01*
Y582878D01*
X1211930Y582418D01*
X1209634Y580123D02*
X1208715D01*
X1209175D01*
Y582878D01*
X1209634Y582418D01*
X1235300Y590100D02*
Y592855D01*
X1233922D01*
X1233463Y592396D01*
Y591477D01*
X1233922Y591018D01*
X1235300D01*
X1234382D02*
X1233463Y590100D01*
X1232545Y590559D02*
X1232086Y590100D01*
X1231168D01*
X1230708Y590559D01*
Y592396D01*
X1231168Y592855D01*
X1232086D01*
X1232545Y592396D01*
Y591937D01*
X1232086Y591477D01*
X1230708D01*
X1184496Y557026D02*
Y559781D01*
X1183118D01*
X1182659Y559321D01*
Y558403D01*
X1183118Y557944D01*
X1184496D01*
X1183578D02*
X1182659Y557026D01*
X1181741Y559321D02*
X1181282Y559781D01*
X1180363D01*
X1179904Y559321D01*
Y558862D01*
X1180363Y558403D01*
X1179904Y557944D01*
Y557485D01*
X1180363Y557026D01*
X1181282D01*
X1181741Y557485D01*
Y557944D01*
X1181282Y558403D01*
X1181741Y558862D01*
Y559321D01*
X1181282Y558403D02*
X1180363D01*
X1153107Y532618D02*
X1153566Y533078D01*
X1154485D01*
X1154944Y532618D01*
Y530782D01*
X1154485Y530323D01*
X1153566D01*
X1153107Y530782D01*
X1152189Y530323D02*
X1151270D01*
X1151730D01*
Y533078D01*
X1152189Y532618D01*
X1148056Y533078D02*
X1149893D01*
Y531700D01*
X1148975Y532159D01*
X1148515D01*
X1148056Y531700D01*
Y530782D01*
X1148515Y530323D01*
X1149434D01*
X1149893Y530782D01*
X1227248Y533118D02*
X1227707Y533578D01*
X1228625D01*
X1229085Y533118D01*
Y531282D01*
X1228625Y530823D01*
X1227707D01*
X1227248Y531282D01*
X1226330Y530823D02*
X1225411D01*
X1225871D01*
Y533578D01*
X1226330Y533118D01*
X1224034Y530823D02*
X1223115D01*
X1223575D01*
Y533578D01*
X1224034Y533118D01*
X1087100Y747300D02*
G03*
X1082100Y742300I0J-5000D01*
G01*
X1273100D02*
G03*
X1268100Y747300I-5000J0D01*
G01*
Y442700D02*
G03*
X1273100Y447700I0J5000D01*
G01*
X1082100D02*
G03*
X1087100Y442700I5000J0D01*
G01*
X1082100Y737121D02*
Y742300D01*
X1087100Y747300D02*
X1268100D01*
X1273100Y447841D02*
Y742300D01*
Y447700D02*
Y447841D01*
X1087100Y442700D02*
X1268100D01*
X1082100Y447700D02*
Y737121D01*
D14*
X1242890Y674905D02*
Y700495D01*
X1229110D02*
X1242890D01*
X1229110Y674905D02*
Y700495D01*
Y674905D02*
X1242890D01*
D15*
X1251015Y707375D02*
Y708654D01*
X1240385D02*
X1251015D01*
X1240385Y707375D02*
Y708654D01*
Y702946D02*
Y704225D01*
Y702946D02*
X1251015D01*
Y704225D01*
X1231615Y707375D02*
Y708654D01*
X1220985D02*
X1231615D01*
X1220985Y707375D02*
Y708654D01*
Y702946D02*
Y704225D01*
Y702946D02*
X1231615D01*
Y704225D01*
X1155053Y585568D02*
Y586847D01*
X1165683D01*
Y585568D02*
Y586847D01*
Y581139D02*
Y582418D01*
X1155053Y581139D02*
X1165683D01*
X1155053D02*
Y582418D01*
X1131872Y567885D02*
X1133152D01*
X1131872D02*
Y578515D01*
X1133152D01*
X1136302D02*
X1137581D01*
Y567885D02*
Y578515D01*
X1136302Y567885D02*
X1137581D01*
X1123585Y560176D02*
Y561456D01*
X1134215D01*
Y560176D02*
Y561456D01*
Y555747D02*
Y557027D01*
X1123585Y555747D02*
X1134215D01*
X1123585D02*
Y557027D01*
X1145368Y560075D02*
Y561354D01*
X1155999D01*
Y560075D02*
Y561354D01*
Y555646D02*
Y556925D01*
X1145368Y555646D02*
X1155999D01*
X1145368D02*
Y556925D01*
X1160301Y560205D02*
Y561484D01*
X1170931D01*
Y560205D02*
Y561484D01*
Y555776D02*
Y557055D01*
X1160301Y555776D02*
X1170931D01*
X1160301D02*
Y557055D01*
X1200384Y560175D02*
Y561454D01*
X1211014D01*
Y560175D02*
Y561454D01*
Y555746D02*
Y557025D01*
X1200384Y555746D02*
X1211014D01*
X1200384D02*
Y557025D01*
X1219257Y555746D02*
Y557025D01*
Y555746D02*
X1229887D01*
Y557025D01*
Y560175D02*
Y561454D01*
X1219257D02*
X1229887D01*
X1219257Y560175D02*
Y561454D01*
X1109873Y555747D02*
Y557027D01*
Y555747D02*
X1120502D01*
Y557027D01*
Y560176D02*
Y561456D01*
X1109873D02*
X1120502D01*
X1109873Y560176D02*
Y561456D01*
X1230005Y581107D02*
Y582387D01*
Y581107D02*
X1240635D01*
Y582387D01*
Y585536D02*
Y586816D01*
X1230005D02*
X1240635D01*
X1230005Y585536D02*
Y586816D01*
X1213075Y567885D02*
X1214354D01*
Y578515D01*
X1213075D02*
X1214354D01*
X1208646D02*
X1209925D01*
X1208646Y567885D02*
Y578515D01*
Y567885D02*
X1209925D01*
X1186672Y555746D02*
Y557025D01*
Y555746D02*
X1197302D01*
Y557025D01*
Y560175D02*
Y561454D01*
X1186672D02*
X1197302D01*
X1186672Y560175D02*
Y561454D01*
X1235376Y555746D02*
Y557025D01*
Y555746D02*
X1246006D01*
Y557025D01*
Y560175D02*
Y561454D01*
X1235376D02*
X1246006D01*
X1235376Y560175D02*
Y561454D01*
X1148346Y528615D02*
X1149625D01*
X1148346Y517985D02*
Y528615D01*
Y517985D02*
X1149625D01*
X1152775D02*
X1154054D01*
Y528615D01*
X1152775D02*
X1154054D01*
X1227475D02*
X1228754D01*
Y517985D02*
Y528615D01*
X1227475Y517985D02*
X1228754D01*
X1223046D02*
X1224325D01*
X1223046D02*
Y528615D01*
X1224325D01*
X1191310Y720818D02*
X1227687D01*
X1191310D02*
Y747196D01*
X1227687Y720818D02*
Y747196D01*
X1122861Y675036D02*
X1128765D01*
Y672084D01*
X1127781Y671100D01*
X1125813D01*
X1124829Y672084D01*
Y675036D01*
X1122861Y669132D02*
Y667164D01*
Y668148D01*
X1128765D01*
X1127781Y669132D01*
D60*
X1134101Y519440D02*
Y523440D01*
Y519440D02*
X1146101D01*
Y523440D01*
X1134101D02*
X1146101D01*
X1209101Y519440D02*
Y523440D01*
Y519440D02*
X1221101D01*
Y523440D01*
X1209101D02*
X1221101D01*
M02*
