G04*
G04 #@! TF.GenerationSoftware,Altium Limited,Altium Designer,24.2.2 (26)*
G04*
G04 Layer_Color=65535*
%FSLAX25Y25*%
%MOIN*%
G70*
G04*
G04 #@! TF.SameCoordinates,3758B99F-9DEC-4DD0-BAA5-DFD1AAF1D411*
G04*
G04*
G04 #@! TF.FilePolarity,Positive*
G04*
G01*
G75*
%ADD10C,0.00984*%
%ADD11C,0.00787*%
%ADD12C,0.02000*%
%ADD13C,0.01000*%
%ADD14C,0.00500*%
%ADD15C,0.00591*%
%ADD16C,0.00600*%
D10*
X1222569Y714224D02*
G03*
X1222569Y714224I-492J0D01*
G01*
X1204465Y702157D02*
G03*
X1204465Y702157I-492J0D01*
G01*
D11*
X1174094Y690631D02*
G03*
X1174094Y690631I-394J0D01*
G01*
X1189489Y637813D02*
G03*
X1189489Y637813I-394J0D01*
G01*
X1193532Y602131D02*
G03*
X1193532Y602131I-394J0D01*
G01*
X1227491Y717275D02*
Y719046D01*
X1191506Y717275D02*
Y719046D01*
Y717275D02*
X1194243D01*
X1224754D02*
X1227491D01*
X1120518Y660509D02*
Y681691D01*
X1131108D01*
Y660509D02*
Y681691D01*
X1120518Y660509D02*
X1131108D01*
X1193746Y595854D02*
Y602547D01*
X1187054Y595854D02*
Y602547D01*
X1216446Y584854D02*
Y591546D01*
X1209754Y584854D02*
Y591546D01*
X1208697Y697826D02*
Y698417D01*
X1210371Y693003D02*
X1212536D01*
X1214209Y697826D02*
Y699991D01*
X1210371Y704814D02*
X1212536D01*
D12*
X1147768Y607050D02*
G03*
X1147768Y607050I-1500J0D01*
G01*
X1251132Y608950D02*
G03*
X1251132Y608950I-1500J0D01*
G01*
D13*
X1184451Y490700D02*
Y552132D01*
Y490700D02*
X1245800D01*
Y552132D01*
X1184451D02*
X1245800D01*
X1109400Y490700D02*
Y552100D01*
Y490700D02*
X1170800D01*
Y552100D01*
X1109400D02*
X1170800D01*
X1235900Y560598D02*
Y555600D01*
X1236900Y554600D01*
X1238899D01*
X1239899Y555600D01*
Y560598D01*
X1245897Y554600D02*
X1241898D01*
X1245897Y558599D01*
Y559598D01*
X1244897Y560598D01*
X1242898D01*
X1241898Y559598D01*
X1161100Y560298D02*
Y555300D01*
X1162100Y554300D01*
X1164099D01*
X1165099Y555300D01*
Y560298D01*
X1167098Y559298D02*
X1168098Y560298D01*
X1170097D01*
X1171097Y559298D01*
Y558299D01*
X1170097Y557299D01*
X1169098D01*
X1170097D01*
X1171097Y556299D01*
Y555300D01*
X1170097Y554300D01*
X1168098D01*
X1167098Y555300D01*
X1106937Y677496D02*
X1106478Y677955D01*
X1105559D01*
X1105100Y677496D01*
Y677037D01*
X1105559Y676578D01*
X1106478D01*
X1106937Y676118D01*
Y675659D01*
X1106478Y675200D01*
X1105559D01*
X1105100Y675659D01*
X1107855Y677955D02*
Y675200D01*
X1108773Y676118D01*
X1109692Y675200D01*
Y677955D01*
X1112447Y677496D02*
X1111988Y677955D01*
X1111069D01*
X1110610Y677496D01*
Y675659D01*
X1111069Y675200D01*
X1111988D01*
X1112447Y675659D01*
X1113365Y677955D02*
Y675200D01*
X1115202D01*
X1116120Y677955D02*
Y675200D01*
Y676118D01*
X1117957Y677955D01*
X1116579Y676578D01*
X1117957Y675200D01*
X1112237Y666496D02*
X1111778Y666955D01*
X1110859D01*
X1110400Y666496D01*
Y666037D01*
X1110859Y665578D01*
X1111778D01*
X1112237Y665118D01*
Y664659D01*
X1111778Y664200D01*
X1110859D01*
X1110400Y664659D01*
X1113155Y666955D02*
Y664200D01*
X1114073Y665118D01*
X1114992Y664200D01*
Y666955D01*
X1115910D02*
Y664200D01*
X1117288D01*
X1117747Y664659D01*
Y666496D01*
X1117288Y666955D01*
X1115910D01*
X1123976Y684237D02*
Y686993D01*
X1125354D01*
X1125813Y686533D01*
Y685615D01*
X1125354Y685156D01*
X1123976D01*
X1126731Y684237D02*
X1127650D01*
X1127191D01*
Y686993D01*
X1126731Y686533D01*
X1151852Y697678D02*
Y695382D01*
X1152311Y694922D01*
X1153230D01*
X1153689Y695382D01*
Y697678D01*
X1155985Y694922D02*
Y697678D01*
X1154607Y696300D01*
X1156444D01*
X1181137Y667973D02*
X1180678Y668432D01*
X1179760D01*
X1179301Y667973D01*
Y666136D01*
X1179760Y665677D01*
X1180678D01*
X1181137Y666136D01*
X1182056Y665677D02*
X1182974D01*
X1182515D01*
Y668432D01*
X1182056Y667973D01*
X1186188Y668432D02*
X1185270Y667973D01*
X1184352Y667054D01*
Y666136D01*
X1184811Y665677D01*
X1185729D01*
X1186188Y666136D01*
Y666595D01*
X1185729Y667054D01*
X1184352D01*
X1189493Y663618D02*
X1189034Y664078D01*
X1188116D01*
X1187656Y663618D01*
Y661782D01*
X1188116Y661322D01*
X1189034D01*
X1189493Y661782D01*
X1190411Y661322D02*
X1191330D01*
X1190870D01*
Y664078D01*
X1190411Y663618D01*
X1194085Y661322D02*
Y664078D01*
X1192707Y662700D01*
X1194544D01*
X1176426Y630562D02*
X1175967Y631021D01*
X1175048D01*
X1174589Y630562D01*
Y628725D01*
X1175048Y628266D01*
X1175967D01*
X1176426Y628725D01*
X1179181Y631021D02*
X1178263Y630562D01*
X1177344Y629643D01*
Y628725D01*
X1177803Y628266D01*
X1178722D01*
X1179181Y628725D01*
Y629184D01*
X1178722Y629643D01*
X1177344D01*
X1173989Y618700D02*
X1173530Y619160D01*
X1172612D01*
X1172153Y618700D01*
Y616864D01*
X1172612Y616405D01*
X1173530D01*
X1173989Y616864D01*
X1174908Y616405D02*
X1175826D01*
X1175367D01*
Y619160D01*
X1174908Y618700D01*
X1177204D02*
X1177663Y619160D01*
X1178581D01*
X1179040Y618700D01*
Y616864D01*
X1178581Y616405D01*
X1177663D01*
X1177204Y616864D01*
Y618700D01*
X1136722Y632432D02*
X1136263Y632891D01*
X1135345D01*
X1134886Y632432D01*
Y631973D01*
X1135345Y631513D01*
X1136263D01*
X1136722Y631054D01*
Y630595D01*
X1136263Y630136D01*
X1135345D01*
X1134886Y630595D01*
X1137641Y632891D02*
Y630136D01*
X1138559Y631054D01*
X1139478Y630136D01*
Y632891D01*
X1140396Y630136D02*
X1141314D01*
X1140855D01*
Y632891D01*
X1140396Y632432D01*
X1247651Y638567D02*
X1248110Y639026D01*
Y639945D01*
X1247651Y640404D01*
X1245815D01*
X1245356Y639945D01*
Y639026D01*
X1245815Y638567D01*
Y637649D02*
X1245356Y637190D01*
Y636271D01*
X1245815Y635812D01*
X1247651D01*
X1248110Y636271D01*
Y637190D01*
X1247651Y637649D01*
X1247192D01*
X1246733Y637190D01*
Y635812D01*
X1247280Y645405D02*
X1247739Y645864D01*
Y646783D01*
X1247280Y647242D01*
X1245443D01*
X1244984Y646783D01*
Y645864D01*
X1245443Y645405D01*
X1244984Y643109D02*
X1247739D01*
X1246361Y644487D01*
Y642650D01*
X1194863Y609378D02*
Y608918D01*
X1195782Y608000D01*
X1196700Y608918D01*
Y609378D01*
X1195782Y608000D02*
Y606623D01*
X1197618D02*
X1198537D01*
X1198078D01*
Y609378D01*
X1197618Y608918D01*
X1184663Y644878D02*
Y642582D01*
X1185122Y642123D01*
X1186041D01*
X1186500Y642582D01*
Y644878D01*
X1187418Y642123D02*
X1188337D01*
X1187878D01*
Y644878D01*
X1187418Y644418D01*
X1248363Y578318D02*
X1247904Y578778D01*
X1246986D01*
X1246527Y578318D01*
Y577859D01*
X1246986Y577400D01*
X1247904D01*
X1248363Y576941D01*
Y576482D01*
X1247904Y576022D01*
X1246986D01*
X1246527Y576482D01*
X1249282Y578778D02*
Y576022D01*
X1250200Y576941D01*
X1251118Y576022D01*
Y578778D01*
X1253873Y576022D02*
X1252037D01*
X1253873Y577859D01*
Y578318D01*
X1253414Y578778D01*
X1252496D01*
X1252037Y578318D01*
X1144300Y647100D02*
Y649855D01*
X1145677D01*
X1146137Y649396D01*
Y648478D01*
X1145677Y648018D01*
X1144300D01*
X1145218D02*
X1146137Y647100D01*
X1147055Y649855D02*
X1148892D01*
Y649396D01*
X1147055Y647559D01*
Y647100D01*
X1198804Y682723D02*
Y685478D01*
X1200182D01*
X1200641Y685018D01*
Y684100D01*
X1200182Y683641D01*
X1198804D01*
X1199722D02*
X1200641Y682723D01*
X1203396Y685478D02*
X1202478Y685018D01*
X1201559Y684100D01*
Y683182D01*
X1202018Y682723D01*
X1202937D01*
X1203396Y683182D01*
Y683641D01*
X1202937Y684100D01*
X1201559D01*
X1219396Y682622D02*
Y685378D01*
X1220774D01*
X1221233Y684918D01*
Y684000D01*
X1220774Y683541D01*
X1219396D01*
X1220315D02*
X1221233Y682622D01*
X1223988Y685378D02*
X1222151D01*
Y684000D01*
X1223070Y684459D01*
X1223529D01*
X1223988Y684000D01*
Y683082D01*
X1223529Y682622D01*
X1222610D01*
X1222151Y683082D01*
X1219900Y711300D02*
Y714055D01*
X1221278D01*
X1221737Y713596D01*
Y712677D01*
X1221278Y712218D01*
X1219900D01*
X1220818D02*
X1221737Y711300D01*
X1224032D02*
Y714055D01*
X1222655Y712677D01*
X1224492D01*
X1194800Y711300D02*
Y714055D01*
X1196177D01*
X1196637Y713596D01*
Y712677D01*
X1196177Y712218D01*
X1194800D01*
X1195718D02*
X1196637Y711300D01*
X1197555Y713596D02*
X1198014Y714055D01*
X1198932D01*
X1199392Y713596D01*
Y713137D01*
X1198932Y712677D01*
X1198473D01*
X1198932D01*
X1199392Y712218D01*
Y711759D01*
X1198932Y711300D01*
X1198014D01*
X1197555Y711759D01*
X1210804Y607123D02*
Y609878D01*
X1212182D01*
X1212641Y609418D01*
Y608500D01*
X1212182Y608041D01*
X1210804D01*
X1211722D02*
X1212641Y607123D01*
X1215396D02*
X1213559D01*
X1215396Y608959D01*
Y609418D01*
X1214937Y609878D01*
X1214018D01*
X1213559Y609418D01*
X1244223Y616437D02*
X1246978D01*
Y615059D01*
X1246518Y614600D01*
X1245600D01*
X1245141Y615059D01*
Y616437D01*
Y615518D02*
X1244223Y614600D01*
Y613682D02*
Y612763D01*
Y613223D01*
X1246978D01*
X1246518Y613682D01*
X1204000Y711455D02*
Y708700D01*
X1205377D01*
X1205837Y709159D01*
Y710996D01*
X1205377Y711455D01*
X1204000D01*
X1206755Y708700D02*
X1207673D01*
X1207214D01*
Y711455D01*
X1206755Y710996D01*
X1230593Y590123D02*
X1231052Y589663D01*
X1231971D01*
X1232430Y590123D01*
Y591959D01*
X1231971Y592418D01*
X1231052D01*
X1230593Y591959D01*
X1229675Y592418D02*
X1228757D01*
X1229216D01*
Y589663D01*
X1229675Y590123D01*
X1227379D02*
X1226920Y589663D01*
X1226002D01*
X1225542Y590123D01*
Y590582D01*
X1226002Y591041D01*
X1226461D01*
X1226002D01*
X1225542Y591500D01*
Y591959D01*
X1226002Y592418D01*
X1226920D01*
X1227379Y591959D01*
X1214689Y664948D02*
X1214230Y665407D01*
X1213312D01*
X1212853Y664948D01*
Y663111D01*
X1213312Y662652D01*
X1214230D01*
X1214689Y663111D01*
X1215608Y662652D02*
X1216526D01*
X1216067D01*
Y665407D01*
X1215608Y664948D01*
X1219740Y662652D02*
X1217904D01*
X1219740Y664488D01*
Y664948D01*
X1219281Y665407D01*
X1218363D01*
X1217904Y664948D01*
X1206237Y665196D02*
X1205777Y665655D01*
X1204859D01*
X1204400Y665196D01*
Y663359D01*
X1204859Y662900D01*
X1205777D01*
X1206237Y663359D01*
X1207155Y665196D02*
X1207614Y665655D01*
X1208533D01*
X1208992Y665196D01*
Y664737D01*
X1208533Y664278D01*
X1208992Y663818D01*
Y663359D01*
X1208533Y662900D01*
X1207614D01*
X1207155Y663359D01*
Y663818D01*
X1207614Y664278D01*
X1207155Y664737D01*
Y665196D01*
X1207614Y664278D02*
X1208533D01*
X1221241Y609718D02*
X1220782Y610178D01*
X1219863D01*
X1219404Y609718D01*
Y607882D01*
X1219863Y607422D01*
X1220782D01*
X1221241Y607882D01*
X1222159Y610178D02*
X1223996D01*
Y609718D01*
X1222159Y607882D01*
Y607422D01*
X1234037Y632096D02*
X1233578Y632555D01*
X1232659D01*
X1232200Y632096D01*
Y630259D01*
X1232659Y629800D01*
X1233578D01*
X1234037Y630259D01*
X1236792Y632555D02*
X1234955D01*
Y631178D01*
X1235873Y631637D01*
X1236333D01*
X1236792Y631178D01*
Y630259D01*
X1236333Y629800D01*
X1235414D01*
X1234955Y630259D01*
X1223841Y664818D02*
X1223382Y665278D01*
X1222463D01*
X1222004Y664818D01*
Y662982D01*
X1222463Y662523D01*
X1223382D01*
X1223841Y662982D01*
X1224759Y664818D02*
X1225218Y665278D01*
X1226137D01*
X1226596Y664818D01*
Y664359D01*
X1226137Y663900D01*
X1225678D01*
X1226137D01*
X1226596Y663441D01*
Y662982D01*
X1226137Y662523D01*
X1225218D01*
X1224759Y662982D01*
X1189941Y590938D02*
X1189482Y591397D01*
X1188563D01*
X1188104Y590938D01*
Y589102D01*
X1188563Y588642D01*
X1189482D01*
X1189941Y589102D01*
X1192696Y588642D02*
X1190859D01*
X1192696Y590479D01*
Y590938D01*
X1192237Y591397D01*
X1191318D01*
X1190859Y590938D01*
X1213100Y580606D02*
X1212641Y581065D01*
X1211722D01*
X1211263Y580606D01*
Y578769D01*
X1211722Y578310D01*
X1212641D01*
X1213100Y578769D01*
X1214018Y578310D02*
X1214937D01*
X1214478D01*
Y581065D01*
X1214018Y580606D01*
X1087100Y747300D02*
G03*
X1082100Y742300I0J-5000D01*
G01*
X1273100D02*
G03*
X1268100Y747300I-5000J0D01*
G01*
Y442700D02*
G03*
X1273100Y447700I0J5000D01*
G01*
X1082100D02*
G03*
X1087100Y442700I5000J0D01*
G01*
X1082100Y737121D02*
Y742300D01*
X1087100Y747300D02*
X1268100D01*
X1273100Y447841D02*
Y742300D01*
Y447700D02*
Y447841D01*
X1087100Y442700D02*
X1268100D01*
X1082100Y447700D02*
Y737121D01*
D14*
X1155806Y659706D02*
Y680494D01*
X1176594Y659706D02*
Y680494D01*
X1218603Y613797D02*
X1220493D01*
X1218603Y641356D02*
X1220493D01*
X1192934Y613797D02*
X1194824D01*
X1192934Y641356D02*
X1194824D01*
X1220493Y613797D02*
Y615687D01*
Y639466D02*
Y641356D01*
X1192934Y613797D02*
Y615687D01*
Y639466D02*
Y641356D01*
X1196879Y597485D02*
Y598115D01*
X1206721Y597485D02*
Y598115D01*
D15*
X1179846Y663915D02*
X1181125D01*
X1179846Y653285D02*
Y663915D01*
Y653285D02*
X1181125D01*
X1184275D02*
X1185554D01*
Y663915D01*
X1184275D02*
X1185554D01*
X1188136Y659615D02*
X1189416D01*
X1188136Y648985D02*
Y659615D01*
Y648985D02*
X1189416D01*
X1192565D02*
X1193845D01*
Y659615D01*
X1192565D02*
X1193845D01*
X1174228Y632579D02*
Y633858D01*
Y632579D02*
X1184857D01*
Y633858D01*
Y637008D02*
Y638288D01*
X1174228D02*
X1184857D01*
X1174228Y637008D02*
Y638288D01*
X1174228Y620785D02*
Y622065D01*
Y620785D02*
X1184857D01*
Y622065D01*
Y625214D02*
Y626494D01*
X1174228D02*
X1184857D01*
X1174228Y625214D02*
Y626494D01*
X1242115Y639387D02*
Y640667D01*
X1231485D02*
X1242115D01*
X1231485Y639387D02*
Y640667D01*
Y634958D02*
Y636238D01*
Y634958D02*
X1242115D01*
Y636238D01*
X1214675Y605956D02*
X1215954D01*
Y595326D02*
Y605956D01*
X1214675Y595326D02*
X1215954D01*
X1210246D02*
X1211525D01*
X1210246D02*
Y605956D01*
X1211525D01*
X1219244Y697334D02*
X1220524D01*
X1219244D02*
Y707964D01*
X1220524D01*
X1223673D02*
X1224953D01*
Y697334D02*
Y707964D01*
X1223673Y697334D02*
X1224953D01*
X1218746Y595328D02*
X1220025D01*
X1218746D02*
Y605958D01*
X1220025D01*
X1223175D02*
X1224454D01*
Y595328D02*
Y605958D01*
X1223175Y595328D02*
X1224454D01*
X1213534Y659615D02*
X1214813D01*
X1213534Y648985D02*
Y659615D01*
Y648985D02*
X1214813D01*
X1217963D02*
X1219243D01*
Y659615D01*
X1217963D02*
X1219243D01*
X1231446Y616235D02*
Y617515D01*
X1242076D01*
Y616235D02*
Y617515D01*
Y611806D02*
Y613086D01*
X1231446Y611806D02*
X1242076D01*
X1231446D02*
Y613086D01*
X1242076Y646695D02*
Y647974D01*
X1231446D02*
X1242076D01*
X1231446Y646695D02*
Y647974D01*
Y642266D02*
Y643545D01*
Y642266D02*
X1242076D01*
Y643545D01*
X1221146Y659615D02*
X1222425D01*
X1221146Y648985D02*
Y659615D01*
Y648985D02*
X1222425D01*
X1225575D02*
X1226854D01*
Y659615D01*
X1225575D02*
X1226854D01*
X1231121Y595326D02*
X1232400D01*
Y605956D01*
X1231121D02*
X1232400D01*
X1226692D02*
X1227971D01*
X1226692Y595326D02*
Y605956D01*
Y595326D02*
X1227971D01*
X1204660Y674984D02*
X1205939D01*
X1204660D02*
Y685613D01*
X1205939D01*
X1209089D02*
X1210369D01*
Y674984D02*
Y685613D01*
X1209089Y674984D02*
X1210369D01*
X1212538Y674985D02*
X1213817D01*
X1212538D02*
Y685615D01*
X1213817D01*
X1216967D02*
X1218246D01*
Y674985D02*
Y685615D01*
X1216967Y674985D02*
X1218246D01*
X1203693Y659615D02*
X1204972D01*
X1203693Y648985D02*
Y659615D01*
Y648985D02*
X1204972D01*
X1208122D02*
X1209402D01*
Y659615D01*
X1208122D02*
X1209402D01*
X1198476Y697334D02*
X1199756D01*
Y707964D01*
X1198476D02*
X1199756D01*
X1194047D02*
X1195327D01*
X1194047Y697334D02*
Y707964D01*
Y697334D02*
X1195327D01*
X1242117Y620785D02*
Y622065D01*
X1231487Y620785D02*
X1242117D01*
X1231487D02*
Y622065D01*
Y625214D02*
Y626494D01*
X1242117D01*
Y625214D02*
Y626494D01*
X1143585Y638146D02*
Y639425D01*
Y638146D02*
X1154215D01*
Y639425D01*
Y642575D02*
Y643854D01*
X1143585D02*
X1154215D01*
X1143585Y642575D02*
Y643854D01*
X1191310Y720818D02*
X1227687D01*
X1191310D02*
Y747196D01*
X1227687Y720818D02*
Y747196D01*
X1122861Y675036D02*
X1128765D01*
Y672084D01*
X1127781Y671100D01*
X1125813D01*
X1124829Y672084D01*
Y675036D01*
X1122861Y669132D02*
Y667164D01*
Y668148D01*
X1128765D01*
X1127781Y669132D01*
D16*
X1148978Y614050D02*
X1152022D01*
X1143300D02*
Y632350D01*
X1148978D02*
X1152022D01*
X1157700Y614050D02*
Y632350D01*
X1243878Y601950D02*
X1246922D01*
X1252600Y583650D02*
Y601950D01*
X1243878Y583650D02*
X1246922D01*
X1238200D02*
Y601950D01*
M02*
